/* XPM */
static char *result[] = {
/* columns rows colors chars-per-pixel */
"64 64 216 2 ",
"   c #1A3334",
".  c #1B2833",
"X  c #2C2C35",
"o  c #2E2F38",
"O  c #222A33",
"+  c #322F39",
"@  c #3A2F39",
"#  c #342C34",
"$  c #283335",
"%  c #34303A",
"&  c #3B3139",
"*  c #363633",
"=  c #7C0000",
"-  c #4A3434",
";  c #483636",
":  c #533634",
">  c #563A34",
",  c #5D3A34",
"<  c #713F2F",
"1  c #653C33",
"2  c #6B3E32",
"3  c #723F2F",
"4  c #721E2B",
"5  c #66432E",
"6  c #6B432E",
"7  c #73422F",
"8  c #6D4431",
"9  c #664331",
"0  c #734332",
"q  c #7A4332",
"w  c #7A4835",
"e  c #9A1F33",
"r  c #B41F37",
"t  c #8C3D34",
"y  c #873F34",
"u  c #9C3B36",
"i  c #993935",
"p  c #A33637",
"a  c #B6313A",
"s  c #BD2D3B",
"d  c #D0001C",
"f  c #CB0027",
"g  c #D3002B",
"h  c #D30027",
"j  c #D40033",
"k  c #D50039",
"l  c #D8083C",
"z  c #CB1F3D",
"x  c #C61E3C",
"c  c #D51E3F",
"v  c #D91B3F",
"b  c #D6153F",
"n  c #E30034",
"m  c #CD223E",
"M  c #C5263D",
"N  c #D4223F",
"B  c #D52C3E",
"V  c #D5353F",
"C  c #824133",
"Z  c #A6403A",
"A  c #D9593C",
"S  c #D5413C",
"D  c #DC623A",
"F  c #DE7437",
"G  c #E17E36",
"H  c #D30042",
"J  c #D90843",
"K  c #D61F40",
"L  c #DA1D41",
"P  c #CF0041",
"I  c #D62141",
"U  c #DA2042",
"Y  c #D62C43",
"T  c #D82B43",
"R  c #D93441",
"E  c #CB2C42",
"W  c #E42245",
"Q  c #E42A45",
"!  c #E41446",
"~  c #DA454F",
"^  c #DC5B5B",
"/  c #DA4F54",
"(  c #DC605E",
")  c #DD6A64",
"_  c #D87B6E",
"`  c #E07C70",
"'  c #DE8435",
"]  c #E38735",
"[  c #E99633",
"{  c #EAAB2B",
"}  c #E8A52D",
"|  c #EEB826",
" . c #F0BD22",
".. c #F4DB02",
"X. c #FADE03",
"o. c #F3DA0B",
"O. c #FADC0A",
"+. c #F9D707",
"@. c #F3C91C",
"#. c #F6D815",
"$. c #EED913",
"%. c #FDE301",
"&. c #FFEB03",
"*. c #FBE405",
"=. c #FFF304",
"-. c #FFFC00",
";. c #FFF01B",
":. c #F2C221",
">. c #EDD92A",
",. c #F5D937",
"<. c #ECDA2F",
"1. c #E28575",
"2. c #E48B79",
"3. c #E5917D",
"4. c #B8C57E",
"5. c #E6D948",
"6. c #F6D748",
"7. c #E1D755",
"8. c #F4D55B",
"9. c #FFE45C",
"0. c #D6D66C",
"q. c #C6C971",
"w. c #F2D363",
"e. c #F6D777",
"r. c #EAD270",
"t. c #DED352",
"y. c #29B1BF",
"u. c #39B3BE",
"i. c #36AFBB",
"p. c #12AFBF",
"a. c #58AFAE",
"s. c #48AEB3",
"d. c #46B5BC",
"f. c #4AB5BC",
"g. c #47B5BC",
"h. c #51B6BB",
"j. c #5AB4B4",
"k. c #6DBAB4",
"l. c #7CBDB0",
"z. c #03AEC0",
"x. c #01B2C3",
"c. c #0CB3C4",
"v. c #12B2C2",
"b. c #1CB4C3",
"n. c #2DB3C0",
"m. c #23B3C1",
"M. c #33B4C0",
"N. c #38B8C4",
"B. c #4CBDC4",
"V. c #50BCC3",
"C. c #4DC2CA",
"Z. c #4BC0C7",
"A. c #52C1C8",
"S. c #8EBA9C",
"D. c #A9BE87",
"F. c #84BEAC",
"G. c #A3A1A2",
"H. c #DF9B84",
"J. c #E89A85",
"K. c #D9BE9E",
"L. c #D5BD9C",
"P. c #ECAA91",
"I. c #F3BD9E",
"U. c #F1B598",
"Y. c #EBA68D",
"T. c #9EC39D",
"R. c #BACB8A",
"E. c #A3C59C",
"W. c #ABC797",
"Q. c #97C3A3",
"!. c #8DC1A7",
"~. c #ADD2A3",
"^. c #DBC09F",
"/. c #C6CE82",
"(. c #EFD28D",
"). c #EFD083",
"_. c #F0D383",
"`. c #EFD298",
"'. c #EDCE86",
"]. c #DEC3A1",
"[. c #E2C6A4",
"{. c #E4C9A6",
"}. c #EBCDA9",
"|. c #E7CCA9",
" X c #F7C9A7",
".X c #EDD1A9",
"XX c #F0D1A2",
"oX c #F3D3AD",
"OX c #FCD6AD",
"+X c #FCD8AF",
"@X c #F5D5B3",
"#X c #F9D6B2",
"$X c #FCDAB4",
"%X c #FDDCB9",
"&X c #F8D7B9",
"*X c #EBD5B5",
"=X c #FFE2BA",
"-X c #FFE6BD",
";X c #C8C7C7",
":X c #DBDADB",
">X c #FBDFC1",
",X c #F6DCC7",
"<X c #FCE0C3",
"1X c #FCE5CD",
"2X c #FCE6C3",
"3X c #FBE5D1",
"4X c #FCECDC",
"5X c #F7E6D7",
"6X c #EEE0D1",
"7X c #E8E8E7",
"8X c #FDF1E5",
"9X c #FCF3EC",
"0X c #FCF9F5",
"qX c #FDFDFD",
"wX c #FAF5F2",
"eX c None",
/* pixels */
"eXeXeXeXeXeXeXeXeXeXeXeXeXeXeXeXeXeXeXeXeXeXeXeXeXeXeXeXeXeXeXeX....eXeXeXeXeXeXeXeXeXeXeXeXeXeXeXeXeXeXeXeXeXeXeXeXeXeXeXeXeXeX",
"eXeXeXeXeXeXeXeXeXeXeXeXeXeXeXeXeXeXeXeXeXeXeXeXeXeXeXo.#.%.%.&.&.=.X...eXeXeXeXeXeXeXeXeXeXeXeXeXeXeXeXeXeXeXeXeXeXeXeXeXeXeXeX",
"eXeXeXeXeXeXeXeXeXeXeXeXeXeXeXeXeXeXeXeXeXeXeXeXeX$.#.&.%.O.#.#.O.X.#.;.;.X.eXeXeXeXeXeXeXeXeXeXeXeXeXeXeXeXeXeXeXeXeXeXeXeXeXeX",
"eXeXeXeXeXeXeXeXeXeXeXeXeXeXeXeXeXeXeXeXeXeXeXeX%.-.%.X.t.%.%.X.X.%.%.%.%.>.eXeXeXeXeXeXeXeXeXeXeXeXeXeXeXeXeXeXeXeXeXeXeXeXeXeX",
"eXeXeXeXeXeXeXeXeXeXeXeXeXeXeXeXeXeXeXeXeXeXeXz.4.$.>.S.S.%.q.4.>.$.q.D.q.S.N.Z.d.d.eXeXeXeXeXeXeXeXeXeXeXeXeXeXeXeXeXeXeXeXeXeX",
"eXeXeXeXeXeXeXeXeXeXeXeXeXeXeXeXeXeXeXeXs.f.B.B.i.s.s.y.j.a.z.z.s.a.p.z.z.y.f.g.f.B.B.d.eXeXeXeXeXeXeXeXeXeXeXeXeXeXeXeXeXeXeXeX",
"eXeXeXeXeXeXeXeXeXeXeXeXeXeXeXeXeXeXeXd.C.B.f.f.f.f.f.f.f.d.f.h.f.g.h.h.f.f.g.g.d.g.d.B.B.f.eXeXeXeXeXeXeXeXeXeXeXeXeXeXeXeXeXeX",
"eXeXeXeXeXeXeXeXeXeXeXeXeXeXeXeXeXd.Z.B.g.g.f.f.f.f.s.g.f.f.f.f.f.f.d.d.f.g.g.g.d.f.g.B.f.V.f.eXeXeXeXeXeXeXeXeXeXeXeXeXeXeXeXeX",
"eXeXeXeXeXeXeXeXeXeXeXeXeXeXeXeXg.Z.g.d.g.g.d.d.f.f.f.f.f.f.f.f.d.f.d.f.d.f.d.d.d.d.d.f.f.d.f.B.eXeXeXeXeXeXeXeXeXeXeXeXeXeXeXeX",
"eXeXeXeXeXeXeXeXeXeXeXeXeXeXeXg.B.g.g.g.g.g.B.f.f.f.f.f.f.f.d.f.f.f.f.f.f.d.d.d.d.g.d.d.d.B.d.f.A.f.eXeXeXeXeXeXeXeXeXeXeXeXeXeX",
"eXeXeXeXeXeXeXeXeXeXeXeXeXeXd.f.g.g.g.g.d.g.f.f.f.f.f.f.f.f.f.f.f.f.f.f.f.d.f.f.g.g.d.f.f.g.f.f.f.C.eXeXeXeXeXeXeXeXeXeXeXeXeXeX",
"eXeXeXeXeXeXeXeXeXeXeXeXeXf.f.g.g.g.d.d.g.g.g.g.f.f.f.f.f.f.h.V.h.h.s.h.h.h.f.f.g.d.g.f.g.f.f.f.f.f.B.eXeXeXeXeXeXeXeXeXeXeXeXeX",
"eXeXeXeXeXeXeXeXeXeXeXeXg.B.g.g.g.g.g.d.f.f.f.f.f.h.h.h.d.M.n.m.v.v.x.v.b.b.y.u.d.g.f.h.h.f.f.f.f.f.B.d.eXeXeXeXeXeXeXeXeXeXeXeX",
"eXeXeXeXeXeXeXeXeXeXeXeXC.B.g.d.f.f.d.d.f.f.h.f.M.v.z.n.f.k.F.S.D.W.W.W.T.Q.F.k.h.y.x.c.n.B.f.h.h.f.d.C.g.eXeXeXeXeXeXeXeXeXeXeX",
"eXeXeXeXeXeXeXeXeXeXeXg.g.d.d.d.f.f.f.f.g.n.z.y.k.W./.0.,...X.%.O.%.X.X.%.%.X.X.>.7.q.W.F.f.c.x.M.d.h.d.B.eXeXeXeXeXeXeXeXeXeXeX",
"eXeXeXeXeXeXeXeXeXeXd.C.g.g.d.d.f.f.u.x.u.F.R.7.X.X.+.+.,.8.e.(.`.`.`.(.(.).r.w.8.,.*.%.X.>.0.W.l.N.z.M.B.h.eXeXeXeXeXeXeXeXeXeX",
"eXeXeXeXeXeXeXeXeXeXf.B.g.g.f.f.y.c.k.R.5.X.X.,.w.'.*X6X5X6X&X$X%X$X&X#X%X3X6X,X@XoXoXXX_.8.O.%.X.5.R.l.M.c.eXeXeXeXeXeXeXeXeXeX",
"eXeXeXeXeXeXeXeXeXeXZ.g.f.f.c.i.!.0.X.X.,.e.XXOX,X9XqXqXqXqX0X,XOX#XOX3XqXqXqXqX0X1X+X&X$X&XoXXXe.6.X.X.5.~.M.eXeXeXeXeXeXeXeXeX",
"eXeXeXeXeXeXeXeXeXf.A.f.v.u.E.7.%.X.r.XX@X&X$X>XqXqXqXqXqXqXqXqX,XOX5XqXqXqXqXqXqXqX5XOX$X$X$X%X&X&XoX_.6.%.<.eXeXeXeXeXeXeXeXeX",
"eXeXeXeXeXeXeXeXeXf.m.N.E.5.%.6.(..X&X%X$X$X%X0XqXqXqXqXqXqXqXqX9X$XqXqXqXqXqXqXqXqXqX3XOX$X$X+X$X$X%X&X&XoXe.eXeXeXeXeXeXeXeXeX",
"eXeXeXeXeXeXeXeXeXc.Q.5.%.8.`.#X$X$X$X$X&X$X8XqXqXqXqXqXqXqXqXqXqX5XqXqXqXqXqXqXqXqXqXqX&X#X$X$X$X$XOX#X$X$X%XeXeXeXeXeXeXeXeXeX",
"eXeXeXeXeXeXeXeXeX0.X.8.XX&X%X+X#X$X$X$X$X%XqXqXqXqXqXqXqXqXqXqX0X7XqXqXqXqXqXqXqXqXqXqX4X+X%X$X$XOX$X$X$X$X-XeXeXeXeXeXeXeXeXeX",
"eXeXeXeXeXeXeXeX..9.XX&X$X$X$X$X$X$X$X$XOX4XqXqXqXqXqXqXqX;X:XqX0X7XqXqX;X:XqXqXqXqXqXqXwX+X$X%X$X$X$X$X$X$X-XeXeXeXeXeXeXeXeXeX",
"eXeXeXeXeXeXeXeXeX%X$X$X#X$X$X$X$X$X$X$XOX8XqXqXqXqXqXqXqXG.;XqX0X7XqXqXG.:XqXqXqXqXqXqXqX%X+X$X$X$XOX$X$XOX-XeXeXeXeXeXeXeXeXeX",
"eXeXeXeXeXeXeXeXeX%X$X$X+X$X%X$X$X$X$X$X+X9XqXqXqXqXqXqXqXqXqXqXqX8XqXqXqXqXqXqXqXqXqXqXqX%X+X$X$X$X$X#X$X$X2XeXeXeXeXeXeXeXeXeX",
"eXeXeXeXeXeXeXeXeX#X$X$X%X$X$X$X$X$X$X$X+X8XqXqXqXqXqXqXqXqXqXqX8X>XqXqXqXqXqXqXqXqXqXqXqX%X$X$X$X$X$X$X$X$X-XeXeXeXeXeXeXeXeXeX",
"eXeXeXeXeXeXeXeXeX#X=X+X#X$X$X$X$X$X$X$XOX3XqXqXqXqXqXqXqXqXqXqX<XOX9XqXqXqXqXqXqXqXqXqX0X&X$X$X#X$X$X$X$X$X-XeXeXeXeXeXeXeXeXeX",
"eXeXeXeXeXeXeXeXeX+X-X$X$X$X+X$X$X$X$X$X$X%XqXqXqXqXqXqXqXqXqX4X#X$X<XqXqXqXqXqXqXqXqXqX4XOX$X$X$X$X+X$X$X$X#XeXeXeXeXeXeXeXeXeX",
"eXeXeXeXeXeXeXeXeX@X-X%X$X$X$X$X$X$X$X$X$XOX3XqXqXqXqXqXqXqX4X+X$X$X+X3XqXqXqXqXqXqXqX0X%X$X$X$X$X+X#X$X$X=X+XeXeXeXeXeXeXeXeXeX",
"eXeXeXeXeXeXeXeXeXeX=X$X$X$X#X$X$X$X$X$X$X$XOX1X0XqXqXqX0X1X+X$X$X$X$X+X1X0XqXqXqXqX0X-X+X%X$X$X$X$X+X%X%X-X.XeXeXeXeXeXeXeXeXeX",
"eXeXeXeXeXeXeXeXeXeXOX%X$X$X$X$X#X$X#X$X$X$X#XOX$X>X1X%X$X+X$X$X$X$X+X$X+X$X1X4X4X1X%X+X#X$X$X$X$X$X$X$X$X%XeXeXeXeXeXeXeXeXeXeX",
"eXeXeXeXeXeXeXeXeXd J.-X+X$X$X$X$X$X$X$X$X$X$X$X$XOXOX+X$X$X$X$X$X$X$X$X%X$X+X+XOXOX$X$X+X$X$X#X$X$X$X$X%X Xj eXeXeXeXeXeXeXeXeX",
"eXeXeXeXeXeXeXeXQ J ~ OX$X$X$X$X$X$X$X$X$X%X$X$X$X$X$X$X#X$X$X$X#X$X#X$X$X$X$X$X$X%X$X$X$X$X$X$X$X+X$X$X$X1.n Q c eXeXeXeXeXeXeX",
"eXeXeXeXeXeXeXW K Y g J.=X$X%X$X$X$X$X$X$X$X$X$X$X$X$X$X$X$X$X$X$X$X$X$X$X$X#X$X$X$X$X$X$X$X$X$X$X%XoX.X Xj Y c W K eXeXeXeXeXeX",
"eXeXeXeXeXeXU U K U I k  X#X}.=X$X$X$X$X$X$X$X$X$X$X$X$X$X#X$X+X$X$X$X$X$X$X%X$X=X$X$X%X$X$X$X+X%X}.^.OX^ k I K I W c eXeXeXeXeX",
"eXeXeXeXeXU U I U K T j ^ $X].].=X$X$X%X$X$X%X$X$X$X$X$X$X$X$X#X$X$X$X$X$X$X%X$X$X$X$X$X%X$X$X=X}.].=X3.g Y U K K K W eXeXeXeXeX",
"eXeXeXeXN U I I K I K Y g ` =X}.K.&X%X+X$X$X$X$X$X$X$X$X$X$X=X=X$X=X=X%X$X$X$X$X$X$X$X$X$X%X#X].{.-XY.g Y K K K Y B T K eXeXeXeX",
"eXeXeXeXQ I I U U I I K Y g 1.=XOXL.oX=X$X+X$X$X$X$X$X$X$X#XoX^.^.[.|.@X%X$X$X$X$X#X$X$X$X}.^.oX-XP.g I U N c Y k H H U A eXeXeX",
"eXeXeXH H I B I I K I K c Y g ` $X=XK.[.$X%X$X$X$X$X$X+X$X=X^.^.oX}.[.L.|.%X$X$X+X$X%XoX^.[.=X=XJ.j Y T K K Y H F }  .#.O...eXeX",
"eXeX] [ F H H B I c c K c N Y g (  X=X|.K..X$X=X$X$X#X$X#XOX$X%X=X=X=X%XoX}.OX$X$XOX[.K.oX-X#X1.h Y I I K B k A %.%.%.%.*.%.X.eX",
"eXo.*.&.X.@.] H H B c c I N K T g R P.%X%X^.K.{.oX#X$X$X%XOX[.[.[.].[.{.}.oX$X@X[.^.}.=X=XI.^ g Y U c N I K c @.*...O.X.X.X.X.eX",
"eX=.O.O.X.%.%. .A P B N K N K c Y L g ) I.=X%X}.[.^.[.[.|.oX#X$X+X+X$X#X@X}.K.]..X%X=X X2.j j Y U K N c B k } *.O.X.X.X.X.X.&.eX",
"..&.O.X.X.O.O.%...[ P l N K K K c K Y j j ) U.+X=X=X$XoX|.[.K.K.K.^.^.^.].}.#X%X$X X1.l g T T K c c c N P S ..X.X...X.X.X.X.&...",
"X.*.O.*.X.X.X...%.*.:.V b N c c K K K T Y g g ~ 1.U. X$X%X=X=X=X=X=X=X=X$XOXI.J.^ j g N T K c N c I N B P { *.X.X.%.*...X.%.*.o.",
"..&.X.X.X.X.X.X...O.&.{ H B U U I U c c N Y Y k g g K / ) 1.3.Y.J.J.3._ ^ Y j g j Y T I c K c c U K B H D *.o.*.X.X.X.X...X.%.X.",
"o.&.X.X.X.X.X.%.X.X...%.G H T v c K K U I c N I T T K k j g g g f = f f k K T Y I c K c K c U N c c B H G =.*.%.%...X.X.X.X.%.%.",
"eX..X.X.....X.X.%.X.O.%.{ H V K c U K c K K c c c K K T T T Y Y Y E Y E T I K K I c K K c K c U U L N L R {  .{ :.*.X.X.X.*.=.eX",
"eXeX=.*.*.X.%.%.*.*.*.%.[ H T K K I U K K c c U K K L K K K K K N U m m L K K I I I c I c K K v c K K K J H H H k ] #.*.*.X.eXeX",
"eXeXeXX.O.#.#.@.@. .| G H I K K K K K K K c K c K U I K K I K K K K K E K K K K I K K K K K K K U I U c U B T V T H U ] ] eXeXeX",
"eXeXeXeXD R L H H H H H T L K K K K c c K K K K K K U c c I I K K L z x U K K N K K K K K K K K U c c I K K U I K B L J H eXeXeX",
"eXeXeXeXP ! I I T T T T c K U K K z K K K K I I I U K I K I c K K K z z U I K c K K I K I I I I I I I K K I K I U K I Q Y eXeXeX",
"eXeXeXeXeXW Y K K K c c U I U U K K K K c K K I I K I I I I K N L r e I K K K K K I K K K I I I I K I I K K I U U I I W m eXeXeX",
"eXeXeXeXeXU K K I I I I U c c c K K K K K K K I K I K c K K K I K I E x c c c K K K z K K K K K K K K c K I K K K N K U eXeXeXeX",
"eXeXeXeXeXU I I I I I I I c K K K K E K K K K I I K K I I I I I I U K x K K K K K K K K I K I I K I I I K I U K U U L K eXeXeXeX",
"eXeXeXeXeXI W I I K I I c c c c I K K K K K K K I I K K N K N K K K x z c K c c K K K K K K I I I K K K I K I K I K W eXeXeXeXeX",
"eXeXeXeXeXeXM U K I K c K c K c K K K K K K I K K I I K c c c K K L z z K c c K z K I I I K I K K K K c c K K L K I eXeXeXeXeXeX",
"eXeXeXeXeXeXeXZ N b K I K K I K K K K K K c I I I I K K I c c c c r z z K c c N U I K K K K N I N N m m m m M a i eXeXeXeXeXeXeX",
"eXeXeXeXeXeXeX8 q a K L K K E I I K I I I I K K I K I K K K c I c 4 x z c I I K K K I a p t y y q q q 0 0 8 8 8 5 eXeXeXeXeXeXeX",
"eXeXeXeXeXeXeX0 0 9 C a b L L K K K I c N I I K I I K K I N I K K z z z L L L K M p 3 5 1 6 6 < 6 0 8 0 0 0 0 w eXeXeXeXeXeXeXeX",
"eXeXeXeXeXeXeXeXC w w 9 3 i a M m K K L L v L K L K L L L c c c c K x c K s p t < 5 0 7 7 7 < < 0 < 0 0 0 0 w 0 eXeXeXeXeXeXeXeX",
"eXeXeXeXeXeXeXeX0 0 0 0 0 6 6 0 q t i i u u p p u p u p u Z t i u C t C 3 6 6 6 7 q 7 7 7 7 7 7 7 7 7 q 0 0 w 0 eXeXeXeXeXeXeXeX",
"eXeXeXeXeXeXeXeX0 w 0 0 < 2 1 , > ; * * $       O $ * * ; > 9 6 0 0 0 2 2 1 1 > : - - - - - : - > , 1 2 0 0 w eXeXeXeXeXeXeXeXeX",
"eXeXeXeXeXeXeXeX- - ; & & % o o o % & @ @ @ & & & & & & @ + & : 9 > ; & % o X X o + % % o o % o o o % % & ; , eXeXeXeXeXeXeXeXeX",
"eXeXeXeXeXeXeXeXX X X eXeXeXeXeXeXeXeXeXeXeXeXeXeXeXeXeXeX+ + O . eXeXeXeXeXeXeXeXeXeXeXeXeXeXeXeXeXeXeXeXeXeXeXeXeXeXeXeXeXeXeX"
};
