/* XPM */
static char *_ffad1bf0c804a91a21ef007ed2172545ttkR2noZRWrHzbx[] = {
/* columns rows colors chars-per-pixel */
"64 64 192 2 ",
"   c #222121",
".  c #4C3515",
"X  c #523917",
"o  c #563C19",
"O  c #5B3F19",
"+  c #5D3E12",
"@  c #653F02",
"#  c #5C401B",
"$  c #664107",
"%  c #654209",
"&  c #6D470A",
"*  c #7A4B08",
"=  c #7F510D",
"-  c #65461C",
";  c #6D4C1F",
":  c #724E1C",
">  c #75501C",
",  c #7B531B",
"<  c #6D4D21",
"1  c #634926",
"2  c #725124",
"3  c #77582E",
"4  c #7E5A29",
"5  c #7A5626",
"6  c #7B5C33",
"7  c #7F6139",
"8  c #756653",
"9  c #5F5F60",
"0  c #616265",
"q  c #6D6863",
"w  c #6B6B6B",
"e  c #7C7B7B",
"r  c gray30",
"t  c #8C570C",
"y  c #815417",
"u  c #895917",
"i  c #825618",
"p  c #935D14",
"a  c #965C09",
"s  c #9E620D",
"d  c #996012",
"f  c #AC6401",
"g  c #AB690D",
"h  c #A2640F",
"j  c #B56901",
"k  c #B76F0C",
"l  c #B96F09",
"z  c #B16600",
"x  c #BB710B",
"c  c #BE7107",
"v  c #A46815",
"b  c #825C29",
"n  c #9E6D2A",
"m  c #8A6431",
"M  c #946C35",
"N  c #976E38",
"B  c #9A7038",
"V  c #8A632D",
"C  c #AA7022",
"Z  c #A2773D",
"A  c #C46F00",
"S  c #C37103",
"D  c #CC7500",
"F  c #CE7803",
"G  c #C3750A",
"H  c #C87709",
"J  c #CE7B08",
"K  c #D37A01",
"L  c #DD7E00",
"P  c #D27700",
"I  c #8C7048",
"U  c #927957",
"Y  c #856A44",
"T  c #AA7D43",
"R  c #DE8103",
"E  c #E48401",
"W  c #EA8600",
"Q  c #ED8900",
"!  c #EE8D09",
"~  c #F48C00",
"^  c #F98F00",
"/  c #FF9300",
"(  c #F5930C",
")  c #FF970A",
"_  c #FF990E",
"`  c #ED9217",
"'  c #FE9A13",
"]  c #FE9E1D",
"[  c #D8902E",
"{  c #FEA124",
"}  c #FDA32A",
"|  c #FCA632",
" . c #FEA935",
".. c #FDAB3C",
"X. c #AB8451",
"o. c #BC915A",
"O. c #B3864A",
"+. c #9C8464",
"@. c #9C8666",
"#. c #AF9471",
"$. c #D19F5D",
"%. c #C99858",
"&. c #FBAD43",
"*. c #F9AF4B",
"=. c #FCB14C",
"-. c #FAB353",
";. c #FCB85B",
":. c #C89A60",
">. c #D6A465",
",. c #DFAB69",
"<. c #C5A174",
"1. c #E6B06C",
"2. c #EAB46E",
"3. c #F7B963",
"4. c #FBBC65",
"5. c #F9BD6C",
"6. c #F6BB6A",
"7. c #ECB673",
"8. c #F4BD76",
"9. c #F6BF78",
"0. c #F8BF78",
"q. c #E1AB65",
"w. c #F7C179",
"e. c #F9C17A",
"r. c #F8C175",
"t. c #AD9B80",
"y. c #B3A48D",
"u. c #B9AA93",
"i. c #B6B6B6",
"p. c #A9A9A9",
"a. c #C7AC88",
"s. c #D6B589",
"d. c #E2B981",
"f. c #C9BDAD",
"g. c #C6BCAD",
"h. c #FCC983",
"j. c #F7C98C",
"k. c #FACB8B",
"l. c #F6C584",
"z. c #F4CD97",
"x. c #F2CC9A",
"c. c #FACD95",
"v. c #FAD39D",
"b. c #D8C6AE",
"n. c #DACCB9",
"m. c #F3D2A4",
"M. c #FAD5A5",
"N. c #FBDAAC",
"B. c #E6D2B8",
"V. c #FADBB2",
"C. c #FADFBB",
"Z. c #F4DAB7",
"A. c #E7CAA5",
"S. c #FAE1BE",
"D. c #C8C8C8",
"F. c #DED9D2",
"G. c #D8D8D8",
"H. c #D9D5CE",
"J. c #EEDEC9",
"K. c #F5DFC2",
"L. c #E2DDD5",
"P. c #F8E3C6",
"I. c #F5E2CA",
"U. c #FCE6CA",
"Y. c #FEE8CA",
"T. c #F3E6D4",
"R. c #F7E8D5",
"E. c #F3E8DB",
"W. c #FCEFDE",
"Q. c #FCEAD3",
"!. c #E8E3DB",
"~. c #EEEAE4",
"^. c #EEEEEE",
"/. c #E6E5E4",
"(. c #F3EDE4",
"). c #F8EFE2",
"_. c #F1EFEC",
"`. c #F4F2EE",
"'. c #FDF5EC",
"]. c #FFF8ED",
"[. c #EEEFF0",
"{. c #EFF0F2",
"}. c #F3F3F4",
"|. c #F9F6F3",
" X c #FCF9F5",
".X c #F5F7F9",
"XX c #F7F8FA",
"oX c #F8F8F8",
"OX c #F9F9F9",
"+X c #FAFAFA",
"@X c #FDFDFD",
"#X c #FAFBFB",
/* pixels */
"^.#X^..X.X~.@X~.}.OX~.#X{.}.OX~.OX}._.#X^.oX}.[.@X~.C.j.-. .] _ _ ' { ..3.v.J. X}.{.#X^.oX}.^.#X^.oX}.^.#X^.oX.X^.OX^.}.OX~.#X{.",
".X`..X}.}..X}..X}.}..X{..X}.{..X{.}.}.{.oX{.}.R.j...' / / / / / / / / / / ) ] ;.M.(.{.XX{.}..X{..X}.}..X{.}.}.}.oX^..X}.}..X{.}.",
"}.}.}.}.}.}.}.}.}.}.}.}.}.}.}.}.}.}.}.}.}.T.0.] / / / / / / / / / / / / / / / / )  .z.`.}.}.}.}.}.}.}.}.}.}.}.}.}.}.}.}.}.}.}.}.",
"{.oX_.}..X^..X`.}..X^.oX`.}..X{..X}.}.|.z.} / / / / / / / / / / / / / / / / / / / / ) =.U.}.}.oX_..X}.^.oX`.}.}.^.oX`.}.oX^.oX}.",
"oX^.oX}.`.oX^..X}.^.oX^..X.X^.OX^..X).3.) / / / / / / / / / / / / / / / / / / / / / / / ] v.}.^.OX`.}.oX~.#X`.}.#X^.oX}.^.OX^..X",
"_.oX^..X.X^.OX_..X.X^.oX`.{..X^.OXR.&./ / / / / / / / / / / / / / / / / / / / / / / / / / ) e.|.^..X}.^.OX{.}..X^.OX^.}.oX^.oX`.",
".X}.}.}.}.}.`.}.}.`..X`.}.}.}..XR.../ / / / / / / / / / / ~ R x k G F R W ~ / / / / / / / / ) e.`.}.}..X}.}.}.}..X`.}.}.`..X}.}.",
".X_.}.}.}..X[..X}.}..X`..X}.{.W.&./ / / / / / / / ^ R k d , 5 T 4 ; : , h F E W ~ / / / / / / ) k.}.}.}.^..X}.}..X{.}.}.}..X{.}.",
"`.oX^.}..X^.oX`.}..X[.OX}.}.}.3./ / / / / / E W D p : ; ; ; O.9.$.4 ; ; ; : h R K L ^ / / / / / _ V.}.{.OX^.}..X~.OX^.}.oX^.OX}.",
".X^.oX}.`.OX^..X}.^.OX^..X}.z.) / / / / / / j * + ; ; ; ; T 9.e.e.$.5 ; ; ; # + t W W ^ / / / / / } R.XX^.OX`.}.oX^.oX}.^.#X^.}.",
"}..X{..X}.^.oX}.}..X~.oX}.T.} / / / / / ~ R d ; o . X - Z 8.e.e.w.w.%.2 O . X - : k ^ W ^ / / / / / 6.{.oX`.}.}.{.oX}.}.oX^.oX}.",
"}.}.}.}.}.}.}.}.}.}.}.}.}.e./ / / / / Q R g ; ; ; < O 1 X.1.0.e.e.8.:.6 o - ; ; < ; x ^ E / / / / / ' C.}.}.}.}.}.}.}.}.}.}.}.}.",
".X}..X}.}..X_..X}.}.oX{.R.{ / / / / ^ W c : ; ; < ; 6 n.n.#.o.9.>.X.<.B.@.: ; ; ; < : F ~ Q / / / / / 3.^.oX}.}.oX{.}.}.^.oX^..X",
"~.#X~..X.X^.OX^.}.oX^.#Xc./ / / / / W R , ; ; ; ; ; y.@X@X XA.e.1.x.].@XL.7 ; ; ; ; ; u W W / / / / / ] R.[..X}.^.#X^.}.oX^.oX}.",
".X^.OX}._.oX^..X}.[.OX~.&./ / / / ~ W g < < ; ; ; Y ~.@X@X@X XM.c. X@X@X@Xu.; ; ; ; ; < k Q ^ / / / / / j.oX}.{.OX^.oX}.^.OX^.}.",
"`..X}.}..X`.}.}.}..X}.I.' / / / / W R , ; < ; ; ; u.@X@X@X@X@X'.).@X@X@X@X!.6 ; ; < ; ; i E Q / / / / / =.`.}.}.`..X`.}..X`..X}.",
"}.}.}.}.}.`..X}.}.}.}.M./ / / / ^ W k ; < ; ; ; 3 F.@X@XG.p.}.@X@X@Xp.D.@X@X@.- ; ; ; ; < H W / / / / / { R.}.}.}.}.}.}.}.}.}.}.",
".X^..X}.}..X~..X}._.XX5./ / / / ^ W p < ; ; ; ; I '.@X@Xw   G.@X@X.X  r #X@Xu.; ; < ; < < d E / / / / / _ S.}.}..X[.oX}.{.OX_.}.",
"^.OX^.}..X^.#X{.}.oX^.-./ / / / ^ L , < ; : ; - +.#X@X@XG.i..X@X@X@XD.D.@X@Xf.; ; < ; ; ; u R / / / / / / z..X.X^.OX_.}.oX^.OX}.",
"oX^.OX}.`.oX^..X}.[.'.../ / / / ^ F : < ; ; ; ; @.@X@X@X@X@X@X@X@X@X@X@X@X@Xf.; ; ; ; ; ; , K / / / / / / j.}.`..X^..X}._.OX^..X",
"}.}.}.}.}.{..X`.}..X(.| / / / / ^ S : ; ; ; ; ; U .X@X@X@X@X@X#X#X@X@X@X@X@Xu.; ; ; ; : ; > F / / / / / / e..X}.}.}.}.}..X}.}.}.",
"}.}.`.}..X`..X{.}..X(.} / / / / ^ l ; < ; ; ; ; m ~.@X@X@X@X@XU.V.@X@X@X@XOX@.; ; < < < ; : D / / / / / / w..X}._..X`.}.}.}.}.}.",
".X^.oX}.}.OX~.oX}.{.'. .^ / / / / c : ; ; ; ; ; 2 f.@X@X@X@XW.k.e.U.@X@X@X!.6 ; ; ; ; ; ; , F / / / / / / l.}.}.OX^.oX}._.oX^.}.",
"^.OX^.}..X^.OX{.}..X~.&./ / / / / F : ; ; ; ; ; ; U oX@X XY.j.0.e.h.V. X@X#.; ; < ; ; < ; y R / / / / / / j..X.X^.OX^..X.X^.OX}.",
".X^.oX}.}..X^..X}.`.oX;./ / / / / Q i < ; < ; ; < 2 a.V.c.e.0.0.0.e.e.k.s.3 ; ; ; < ; ; < p W / / / / / / N.}.}..X^..X}._.oX_..X",
"}.}.}.}.}.}.}.}.}.}.}.l./ / / / / / g < ; ; ; ; ; ; b q.e.0.0.e.e.0.e.1.V ; ; ; ; ; ; ; : c ^ / / / / / ' I.}.}.}..X}.}.}.}.}.}.",
"}..X`.}.}.{..X}.}.}.{.V.) / / / / / E , ; ; ; < ; ; < M 2.e.w.w.0.e.7.N ; < ; ; < ; < < p R / / / / / / | ~.}..X_..X}.}..X_..X}.",
".X^.oX}.}.OX~.oX}.{.#XT.{ / / / / / / G ; ; ; ; ; < ; ; B 7.e.w.e.1.N ; ; : ; ; ; ; < u L ~ / / / / / / 6.OX}._.OX^..X}._.OX^.}.",
"^.oX^.}..X^.oX^.}.oX^.oX4./ / / / / / / k : < < ; < ; ; ; M ,.w.>.m < < ; ; ; ; ; : p R W ^ / / / / / ) V.[..X.X^.oX^.}..X~.OX}.",
"}.}.}.}.`..X}..X}.}.oX{.V.) / / / / / / / S p , ; ; < < : : C [ v , > > ; ; ; , u G ~ W ^ / / / / / / | E..X}.}..X}..X`.}..X}..X",
"}.}.}.}.}.}.}.}.}.{.}.}.`.&./ / / / / / / / E K J c x x K E ^ R E W R J H H K E ^ / W ~ / / / / / / / j.}..X}.}.}.`..X}.}..X}.}.",
"`.oX{..X.X_.oX`.}.oX^.oX{.m.) / / / / / / / / W W / / / / / ) W Q ~ / / / / / ) ~ E ^ / / / / / / / | E.OX_.}..X^.OX_.}..X^.oX^.",
"oX^.oX}.}.OX^.oX}.^.oX^.oX}.-./ / / / / / / / / ^ W W ^ / / ~ Q Q ^ / / / ^ Q W Q / / / / / / / / ) v.OX~.OX}.`.oX^.oX}.^.OX^.}.",
"`.OX^.}..X^.OX^.}.oX^.oX`.}.R.{ / / / / / / / / / / ~ W W W R ~ E Q ~ W W W Q / / / / / / / / / / 4.`.}.oX^..X.X{.oX`.}..X^.oX}.",
"}.}.}.}.}.}.}.}.}.}.}.`.}.}.}.N._ / / / / / / / / / / / / R E W R W ~ ~ / / / / / / / / / / / / ..E.}.}.}..X}.}.}.}.}.}.}.}.}.}.",
".X^..X}.`..X{.}.}.}..X}..X}.^.oXk.) / / / / / / / / / / / W / / W / / / / / / / / / / / / / / } P.}.}..X^.}.}.}..X^..X}.}..X`.}.",
"^.OX^..X}.^.OX`.}..X~.XX^.}.oX^.oXk.) / / / / / / / / / ^ W / / W ^ / / / / / / / / / / / / } S.^..X}.^.OX^.}..X^.OX^.}..X^.oX}.",
"oX^.oX}.}.OX^.oX}.^.OX{.oX}.^.OX^.}.5.^ ^ ^ / / / / / / / W / / ^ W / / / / / / / / / / ^ } P.{.OX`.}..X^.OX`.}.OX^.OX}.^.OX^.}.",
"}.oX^.}..X^.oX`.}..X{.oX{.}.oX{..X(...^ ~ W E W Q / / / / / / / / W Q / / / / ~ W W W W ^ { I.XX^..X}.`..X`..X}.`..X`.}..X^.oX}.",
"}.}.}.}.}.}.}.}.}.}.}.}.}.}.}.}..Xc.) / / / ^ Q L K K K E W ~ ~ ~ Q W E L K K L W Q / / / / =.(.}..X}.}.}.}.}.}.}.}.}.}.}.}.}.}.",
"}.^..X`.}..X~.oX}.}.oX^..X}.`.oXE.| / / / / / / / / Q R K D S S S S D P R Q ^ / / / / / / / / r.oX{.}..X^.oX}.`.oX^..X}.`.oX^.}.",
"`.#X^.}..X^.OX{.}.oX^.OX`.}.OX{.k./ / / / / / / / / / / / ^ ~ D D ^ ^ / / / / / / / / / / / / _ m.oX}.^.OX^.}..X^.OX^.}.oX^.oX}.",
".X^.oX}.{.oX^.oX}.{.OX~.}.}.{.W.} / / ~ ~ / / / / / / / / / / F K / / / / / / / / / / Q W / / / } J.}.oX^.oX}.^.OX^..X}.^.oX^.}.",
"}.}.}.}.}.`..X}.}.}.}..X}.}.oXl.) / ^ z W / / / / / / / / / / D K / / / / / / / / / / Q f W / / / =.(.}..X}.}..X}..X`.}..X}..X}.",
"}.}.}.}.}.}.}.}.}.}.}..X.X!.b.[ Q / S S / / / / / / / / / / / D K / / / / / / / / / / / W f ! / / ! l.`.}.}.}.}.}.}.}.}.}.}.}.}.",
"oX^.oX}.}.oX^..X}.`.oX{.L.I ; : = a j / / / / / / / / / / / / D K / / / / / / / / / / / / E f g t = v B.{.oX}.{.oX^.oX}.`.oX{.}.",
"{.OX~.}..X^.OX^.}.oX^.OXy.; ; ; % & E / / / / / / / / / / / / F K / / / / / / / / / / / / / c % % $ $ I `.^.}..X^.OX^.}.oX^.OX}.",
"oX^..X}.`.oX^.oX}.^.oX`.y.- ; ; - s / / / / / / / / / / / / / D F / / / / / / / / / / / / / E & % $ $ : H.oX`.}.oX^.oX}.^.OX^.}.",
"}.}.}.}.}.}.}.}.}.}.}.}.F.+.3 3 n Q / / / / / / / / / / / / / F F / / / / / / / / / / / / / ^ s % $ $ @.^.}.}.}.}.}.}.}.}.}.}.}.",
"{.oX}.}..X{..X`.}..X`.oX}.^.F.F.6./ / / / / / / / / / / / / / R K / / / / / / / / / / / / / / ( a.y.b.~.oX{.|.}.^.oX`.}.oX^.oX}.",
"oX~.oX}.`.oX^.oX}.^.OX^.}..X{.#X3./ / / / / / / / / / / / / / K F / / / / / / / / / / / / / / ' Y..X{..X^.OX}.{.#X^.oX}.^.XX^.}.",
"{.OX^.}..X^.OX^.}.oX^.OX}.}.oX^.;./ / / / / / / / / / / / / / K F / / / / / / / / / / / / / / ) Z.XX{.{.#X^.}.}.^.#X^.}.oX^.oX}.",
".X{..X`.}..X`..X}.}.oX^.}.}.}.oX=./ / / / / / / / / / / / / / K F / / / / / / / / / / / / / / ) S.{.}.oX^.oX}.}.oX^.}.}.}.oX^.}.",
"}.}.}.}.}.}.}.}.}.}.}.}.}.}.}.`.&./ / / / / / / / / / / / / / K D / / / / / / / / / / / / / / ) Z..X}.}.}.}.}.}.}.}.}.}.}.}.}.}.",
"^.oX^..X}.{.oX^.}.oX^.oX^.}.oX~...^ / / / / / / / / / / / / / K F / / / / / / / / / / / / / / / m.oX}.^.oX^.oX}.^.#X^.oXoX^.oX}.",
"OX^.OX}.`.OX^.oX}.^.oX^.oXoX^.XXm.( ~ ~ ^ ^ / / / / / / / / / K F / / / / / / / / / / / ^ / ' -.R.{.{.#X^.oX`.{.#X^.oX}.^.#X^.}.",
"{.OX^.}.oX^.OX{.}.oX^.oX{.}.oX^.P.' / ^ ~ W E W ~ ^ / / / / / K D / / / / / / ^ ^ Q ~ Q ~ ^ e.oX^.oX}.^.#X^.}.}.^.oX^.}.oX^.oX}.",
".X`.}.}.}.}.}.}.}.{.oX}.}.}.{.oXK.' / / / / / ~ W E R E W ~ / K F / ^ Q W W W W Q ^ / / / / c.{.}.}.}.}.{.|.}.}.oX^.|.}.{.oX}.}.",
"}.`..X}.}.}.}.}.}.`.}.{.}.}.}.oXK.) / / / / / / / / / Q W W E R R W W W Q ~ / / / / / / / / j.}.oX{.}.}.`.}.}.}.oX^.oX}.}.oX^.}.",
"^.OX^.}.oX^.oX^.}.oX^.oX}.{.oX{.P.' / / / / / / / / / / / / / / / / / / / / / / / / / / / / j.#X^.oXoX^.oX{.}..X^.oX^.}.oX^.XX}.",
"OX^.oX}.{.#X^.oX}.^.#X^..X}.^.#XP._ / / / / / / / / / / / / / / / / / / / / / / / / / / / / j.}.#X^.}.oX^.oX}.}.oX^.oX}.^.XX^.oX",
"{.oX`.}.}.^.oX}.}.oX^.oX`.}./.D.b.` ! ! ! ! ! ! ! ! ! ! ! ! ! ! ! ! ! ! ! ! ! ! ! ! ! ! ! ! d.G.G.oX}.^.oX^.}.}.^.oX`.}.|.^.oX{.",
"}.}.}.}.}.}.}.}.}.}.}.}.}.oXi.9 q 8 8 8 8 8 8 8 8 8 8 8 8 8 8 8 8 8 8 8 8 8 8 8 8 8 8 8 8 8 q w e /.oX}.}.}.}.}.}.}.}.}.}.}.}.}.",
"oX^.oX}.`.oX^.oX}.{.XX^.oXXXD.w 0 0 0 0 0 0 0 0 0 0 0 0 0 0 0 0 0 0 0 0 0 0 0 0 0 0 0 0 0 0 0 9 e /.}.oX^.oX}.}.XX^.oX}.^.#X^.}."
};
