/* XPM */
static char *_3763_3058dc52d4ba18f912356a3e439339bc7058cb85b69f32358a6155758a960004[] = {
/* columns rows colors chars-per-pixel */
"64 64 109 2 ",
"   c #5F2600",
".  c #552A08",
"X  c #5A2E0A",
"o  c #612600",
"O  c #652A02",
"+  c #6C2C00",
"@  c #702E00",
"#  c #62320C",
"$  c #6A310B",
"%  c #6D380F",
"&  c #753200",
"*  c #7A3400",
"=  c #6E3712",
"-  c #6F3914",
";  c #7A4826",
":  c #813700",
">  c #843A00",
",  c #8A3D00",
"<  c #944500",
"1  c #9A4700",
"2  c #9C4901",
"3  c #974A09",
"4  c #9B4D0A",
"5  c #A44B01",
"6  c #AB4D00",
"7  c #AF5100",
"8  c #B55200",
"9  c #BA5700",
"0  c #BF5B04",
"q  c #8C5429",
"w  c #815231",
"e  c #AA6B35",
"r  c #B0713A",
"t  c #C55C00",
"y  c #CB5D00",
"u  c #CF6100",
"i  c #C3600C",
"p  c #D46300",
"a  c #DB6600",
"s  c #DF6900",
"d  c #E06700",
"f  c #E46A00",
"g  c #EC6E00",
"h  c #EF7000",
"j  c #F47301",
"k  c #FE7700",
"l  c #FF7800",
"z  c #FE7D09",
"x  c #8B5F40",
"c  c #976944",
"v  c #9A6C46",
"b  c #91684B",
"n  c #9B6F4B",
"m  c #A0724B",
"M  c #9E7960",
"N  c #FE8315",
"B  c #FD8418",
"V  c #FF8F2A",
"C  c #FE9332",
"Z  c #AB815D",
"A  c #BB9574",
"S  c #B0917D",
"D  c #FE9E45",
"F  c #FEA24B",
"G  c #FEA653",
"H  c #FEAA59",
"J  c #F5AA62",
"K  c #FEB66F",
"L  c #FEB772",
"P  c #FEBC79",
"I  c #B79B88",
"U  c #D3AE89",
"Y  c #D6B18C",
"T  c #C0A898",
"R  c #C6B1A2",
"E  c #CAB6A8",
"W  c #CDBAAD",
"Q  c #C0BFBE",
"!  c #FFC081",
"~  c #FFC68D",
"^  c #FFCB95",
"/  c #FFCE9A",
"(  c #ECCEAB",
")  c #FFD2A1",
"_  c #FFD8AB",
"`  c #EFD3B1",
"'  c #F5D9B5",
"]  c #F6DBBA",
"[  c #FEE2BE",
"{  c #C3C1C0",
"}  c #CBCAC9",
"|  c #D9CAC0",
" . c #E1D6CF",
".. c #E3D9D2",
"X. c #EADED3",
"o. c #FFE6C3",
"O. c #FFE7C9",
"+. c #FFEACD",
"@. c #E6E0D8",
"#. c #ECE5DC",
"$. c #F1E2D0",
"%. c #FFEDD5",
"&. c #E1E1E1",
"*. c #ECECEC",
"=. c #FFF4E4",
"-. c #FEF5E8",
";. c #F7F5F3",
":. c #FEFAF4",
">. c #FEFEFE",
/* pixels */
"k k k k k k k k k k k k k k k k k k k k k k k k k k k k k k k k k k k k k k k k k k k k k k k k k k k k k k k k k k k k k k k k ",
"k k k k k k k k k k k k k k k k k k k k k k k k k k k k k k k k k k k k k k k k k k k k k k k k k k k k k k k k k k k k k k k k ",
"k k k k k k k k k k k k k k k k k k k k k k k k k k k k k k k k k k k k k k k k k k k k k k k k k k k k k k k k k k k k k k k k ",
"k k k k k k k k k k k k k k k k k k k k k k k k k k k k k k k k k k k k k k k k k k k k k k k k k k k k k k k k k k k k k k k k ",
"k k k k k k k k k k k k k k k k k k k k k k k k k k k k k k k k k k k k k k k k k k k k k k k k k k k k k k k k k k k k k k k k ",
"k k k k k k k k k k k k k k k k k k k k k k k k k k k k k k k k k k k k k k k k k k k k k k k k k k k k k k k k k k k k k k k k ",
"k k k k k k k k k k k k k k k k k k k k k k k k k k k k k k k k k k k k k k k k k k k k k k k k k k k k k k k l k k k k k k k k ",
"k k k k k k k k k k k k k k k k k k k k k k k k k k k k k k k k k k k k k k k k k k k k k k k k k k k k k k k k k k k k k k k k ",
"k k k k k k k k k k k k k k k k k k k k k k k k k k k k k k k k k k k k k k k k k k k k k k k k k k k k k k k k k k k k l k k k ",
"k k k k k k k k k k k k k k k k k k k k k k k k k k k k k k k k k k k k k k k k k k k k k k k k k k k k k k k k k k k k k k k k ",
"k k k k k k k k k k k k k k k k k k k k k k k k k k k k k k k k k k k k k k k k k k k k k k k k k k k k k k k k k k k k k k k k ",
"k k k k k k k k k k k k k k k k k k k k k k k k k k k k k k k k k k k k k k k k k k k k k k k k k k k k k k k k k k k k k k k k ",
"k k k k k k k k k k k k k k k k k k k k k k k k k k k k k k k k k k k k k k k k k k k k k k k k k k k l k k k k k k k k k k k k ",
"k k k k k k k k k k k k k k k k k k k k k k k k k k k k k k k k k k k k k k k k k k k k k k k k k k k k k k k k k k k k k k k k ",
"k k k k k k k k k k k k k k k k k k k k k k k k k k k k k k k k k k k k k k k k k k k k k k k k k k k k k k k k k k k k k k k k ",
"k k k k k k k k k k k k k k k k k k k k k k k k k k k k k k k k k k k k k k k k k k k k k k k k k k k k k k k k k k k k k k k k ",
"k k k k k k k k k k k k k k k k k k k k k k k k k k k k k k k k k k k k k k k k k k k k k k k k k k k k k k k k k k k k k k k k ",
"k k k k k k k k k k k k k k k k k k k k k k k k k k k k k k k k k k k k k k k k k k k k k k k k k k k k k k k k k k k k k k k k ",
"k k k k k k k k k k k k k k k k k k k k k k k k k k k k k k k k k k k k k k k k k k k k k k k k k k k k k k k k k k k k k k k k ",
"k k k k k k k k k k k k k k k k k k k k k k k k k k k k k k k j j k k k k k k k k k k k k k k k k k k k k k k k k k k k k k k l ",
"k k k k k k k k k k k k k k k k k k k k k k k k k k k j y 1 , r e , 5 u j k k k k k k k k k k k k k k k k k k k k k k k k k k k ",
"k k k k k k k k k k k k k k k k k k k k k k k k k k p , o # Z ' ` n   O < s k k k k k k k k k k k k k k k k k k k k k k k k k k ",
"k k k k k k k k k k k k k k k k k k k k k k k k k a &   $ A [ [ o.' m o   , s k k k k k k k k k k k k k k k k k k k k k k k k k ",
"k k k k k k k k k k k k k k k k k k k k k k k k f , o O I :.-.O.[ %.$.x o + 2 h k k k k k k k k k k k k k k k k k k k k k k k k ",
"k k k k k k k k k k k k k k k k k l k k k k k k 9 @   b ;.>.>.-.%.>.>.| -   : y k k k k k k k k k k k k k k k k k k k k k k k k ",
"k k k k k k k k k k k k k k k k k k k k k k l f 5 O O E >.>.>.>.:.>.>.>.M   + 9 h l k k k k k k k k k k k k k k k k k k k k k k ",
"k k k k k k k k k k k k k k k k k k k k k k k s 5 o - ..>.>.{ { } { >.>.R O O 9 s l k k k k k k k k k k k k k k k k k k k k k k ",
"k k k k k k k k k k k k k k k k k k k k k k k f 6   = ..>.>.*.#.@.&.>.>.W O + y a k k k k k k k k k k k k k k k k k k k k k k k ",
"k k k k k k k k k k k k k k k k k k k k k k k s y O O T >.>.:.+.%.>.>.>.S o & a a k k k k k k k k k k k k k k k k k k k k k k k ",
"k k k k k k k k k k k k k k k k k k k k k k k f f ,   w X.=.O.[ o.%.:.X.;   6 d f l k k k k k k k k k k k k k k k k k k k k k k ",
"k k k k k k k k k k k k k k k k k k k k k k k j d p @ o v ' [ o.o.o.] n   > f p j k k k k k k k k k k k k k k k k k k k k k k k ",
"k k k k k k k k k k k k k k k k k k k k k k k k a g y * o v ( o.o.( v o , f d a k k k k k k k k k k k k k k k k l k k k k k k k ",
"k k k k k k k k k k k k k k k k k k k k k k k k j p j f 6 * q U Y q : 8 j h a k k k k k k k k k k k k k k k k k k k k k k k k k ",
"k k k k k k k k k k k k k k k k k k k k k k k k k j p f k h a 4 i d j j d a k k k k k k k k k k k k k k k k k k k k k k k k k k ",
"k k k k k k k k k k k k k k k k k k k k k k k k k k k f a f a 1 a g d p d k k k k k k k k k k k k k k k k k k k k k k k k k k k ",
"k k k k k k k k k k k k k k k k k k k k k k k k k k k k k g 9 6 t f j k k k k k k k k k k k k k k k k k k k k k k k k k k k k k ",
"k k k k k k k k k k k k k k k k k k k k k k k k k k k k k k g j p k k k k k k k k k k k k k k k k k k k k k k k k k k k k k k k ",
"k k k k k k k k k k k k k k k k k k k k k k k k k k k k k k k k j k k k k k k k k k k k k k k k k k k k k k k k k k k k k k k k ",
"k k k k k k k k k k k k k k k k k k k k k k k k k k k k k k k k k k k k k k k k k k k k k k k k k k k k k k k k k k k k k k k k ",
"k k k k k k k k k k k k k k k k k k k k k k k k k k k k k k k h h k k k k k k k k k k k k k k k k k k k k k k k k k k k k k k k ",
"k k k k k k k k k k k k k k k k k k k k k k k k k g k k k k k h h k k k k k k k k k k k k k k k k k k k k k k k k k k k k k k k ",
"k k k k k k k k k k k k k k k k k k k k k k k z k g k k k k k h h k k k k k j g z z k k k k k k k k k k k k k k k k k k k k k k ",
"k k k k k k k k k k k k k k k k k k k k k k H / P C k k k k k h h k k k k k B J ^ ! B k k k k k k k k k k k k k k k k k k k k k ",
"k k k k k k k k k k k k k k k k k k k k k B _ O.O.~ z k k k k h h k k k k k F o.o.o.G k k k k k k k k k k k k k k k k k k k k k ",
"k k k k k k k k k k k k k k k k k k k k k N ) O.[ D k k k k N h g k k k k k B / O.[ D k k k k k k k k k k k k k k k k k k k k k ",
"k k k k k k k k k k k k k k k k k k k k k k C L G z k k k k k h h k l l k k k C L G z k k k k k k k k k k k k k k k k k k k k k ",
"k k k k k k k k k k k k k k k k k k k k k k k k k j j j j j j h g j j h j j j j k k k k k k k k k k k k k k k k k k k k k k k k ",
"k k k k k k k k k k k k k k k k k k k k k k k k 0 # X . X X # - % # X . X X # 3 k k k k k k k k k k k k k k k k k k k k k k k k ",
"k k k k k k k k k k k k k k k k k k k k l k k j 0 2 2 < < 1 2 6 5 1 < < 1 2 2 9 k k k k k k k k k k k k k k k k k k k k k k k k ",
"k k k k k k k k k k k k k k k k k k k k k k k k l l l l l l l l l l l l l l k k k k k k k k k k k k k k k k k k k k k k k k k k ",
"k k k k k k k k k k k k k k k k k k k k k k k k k k l k k k k k l l k k k k k k k k k k k k k k k k k k k k k k k k k k k k k k ",
"k k k k k k k k k k k k k k k k k k k k k k k k k k k k k k k k k l k k k k k k k k k k k k k k k k k k k k k k k k k k k k k k ",
"k k k k k k k k k k k k k k k k k k k k k k k k k k k k k k k k k k k k k k k k k k k k k k k k k k k k k k k k k k k k k k k k ",
"k k k k k k k k k k k k k k k k k k k k k k k k k k k k k k k k k k k k k k k k k k k k k k k k k k k k k k k k k k k k k k k k ",
"k k k k k k k k k k k k k k k k k k k k k k k k k k k k k k k k k k k k k k k k k k k k k k k k k k k k k k k k k k k k k k k k ",
"k k k k k k k k k k k k k k k k k k k k k k k k k k k k k k k k k k k k k k k k k k k k k k k k k k k k k k k k k k k k k k k k ",
"k k k k k k k k k k k k k k k k k k k k k k k k k k k k k k k k k k k k k k k k k k k k k k k k k k k k k k k k k k k k k k k k ",
"k k k k k k k k k k k k k k k k k k k k k k k k k k k k k k k k k k k k k k k k k k k k k k k k k k k k k k k k k k k k k k k k ",
"k k k k k k k k k k k k k k k k k k k k k k k k k k k k k k k k k k k k k k k k k k k k k k k k k k k k k k k k k k k k k k k k ",
"k k k k k k k k k k k k k k k k k k k k k k k k k k k k k k k k k k k k k k k k k k k k k k k k k k k k k k k k k k k k k k k k ",
"k k k k k k k k k k k k k k k k k k k k k k k k k k k k k k k k k k k k k k k k k k k k k k k k k k k k k k k k k k k k k k k k ",
"k k k k k k k k k k k k k k k k k k k k l k k k k k k k k k k k k k k k k k k l k k k k k k k k k k k k k k k k k k k k k k k k ",
"k k k k k k k k k k k k k k k k k k k k k k k k k k k k k k k k k k k k k k k k k k k k k k k k k k k k k k k k k k k k k k k k ",
"k k k k k k k k k k k k k k k k k k k k k k k k k k k k k k k k k k k k k k k k k k k k k k k k k k k k k k k k k k k k k k k k "
};
