/* XPM */
static char *f02d20c3d88c4ffdfc0cfd44a8a4e6aaGDJomffe0ebYmoLX[] = {
/* columns rows colors chars-per-pixel */
"64 64 162 2 ",
"   c #020302",
".  c #050807",
"X  c #060B09",
"o  c #0B0D0C",
"O  c #0C100F",
"+  c #110F10",
"@  c #0E1211",
"#  c #131413",
"$  c #151817",
"%  c #161A19",
"&  c #1B1C1B",
"*  c #1E201F",
"=  c #211F20",
"-  c #1F2120",
";  c #232424",
":  c #252827",
">  c #262A28",
",  c #2C2C2C",
"<  c #2D302F",
"1  c #2E3230",
"2  c #333434",
"3  c #383637",
"4  c #343837",
"5  c #363938",
"6  c #3B3C3B",
"7  c #3E4241",
"8  c #434444",
"9  c #484647",
"0  c #454847",
"q  c #464A48",
"w  c #4C4C4C",
"e  c #504E4F",
"r  c #4E504F",
"t  c #4F5251",
"y  c #535353",
"u  c #575958",
"i  c #5C5C5C",
"p  c #5E605F",
"a  c #5E6261",
"s  c #636463",
"d  c #656967",
"f  c #676968",
"g  c #6B6C6C",
"h  c #6E706F",
"j  c #6E7271",
"k  c #737473",
"l  c #767877",
"z  c #767A79",
"x  c #7D7D7D",
"c  c #7E7C7D",
"v  c #7F7D7E",
"b  c #7F7F7F",
"n  c #7B7B7B",
"m  c #7D807F",
"M  c #817F80",
"N  c #817F80",
"B  c #7E8180",
"V  c #818181",
"C  c #828282",
"Z  c #858585",
"A  c #878586",
"S  c #868686",
"D  c #848484",
"F  c #878988",
"G  c #868988",
"H  c #888888",
"J  c #8A8A8A",
"K  c #8A8C8B",
"L  c #8D8D8D",
"P  c #8F8D8E",
"I  c #8F8F8F",
"U  c #8B8C8C",
"Y  c #908E8F",
"T  c #8E908F",
"R  c #8E908F",
"E  c #8F9190",
"W  c #8F9190",
"Q  c gray57",
"!  c #909090",
"~  c #929292",
"^  c #939393",
"/  c gray58",
"(  c #959595",
")  c #959796",
"_  c #979797",
"`  c gray59",
"'  c #949695",
"]  c #949494",
"[  c #969897",
"{  c #969998",
"}  c #989898",
"|  c gray60",
" . c #9A9A9A",
".. c #9B9B9B",
"X. c gray61",
"o. c #9D9D9D",
"O. c gray62",
"+. c #9F9F9F",
"@. c #9C9C9C",
"#. c #9EA09F",
"$. c #9FA1A0",
"%. c #A0A0A0",
"&. c gray63",
"*. c #A2A2A2",
"=. c gray64",
"-. c #A2A0A1",
";. c #A4A4A4",
":. c #A5A5A5",
">. c gray65",
",. c #A7A7A7",
"<. c #A3A3A3",
"1. c #A4A8A7",
"2. c #A9A9A9",
"3. c gray66",
"4. c #AAAAAA",
"5. c gray67",
"6. c #ACACAC",
"7. c gray68",
"8. c #AEAEAE",
"9. c #AFAFAF",
"0. c #ABABAB",
"q. c #B0AEAF",
"w. c #AFB1B0",
"e. c gray69",
"r. c #B1B1B1",
"t. c #B2B2B2",
"y. c gray70",
"u. c #B4B4B4",
"i. c gray71",
"p. c #B6B6B6",
"a. c #B7B7B7",
"s. c #B3B3B3",
"d. c #B8B6B7",
"f. c #B6B8B7",
"g. c #B4BAB8",
"h. c #B8B8B8",
"j. c #BBBBBB",
"k. c gray74",
"l. c #BCBCBC",
"z. c gray",
"x. c gray75",
"c. c #BBBBBB",
"v. c #BEC0BF",
"b. c #C1C1C1",
"n. c #C6C6C6",
"m. c gray78",
"M. c gray77",
"N. c #C3C3C3",
"B. c #C7C9C8",
"V. c #CACACA",
"C. c #CECECE",
"Z. c #CCCCCC",
"A. c #CED0CF",
"S. c #D4D4D4",
"D. c #D8D6D7",
"F. c #DBDCDC",
"G. c #E4E4E4",
"H. c #ECECEC",
"J. c #EEF0EF",
"K. c #F4F4F4",
"L. c #F8F6F7",
"P. c #FDFDFD",
/* pixels */
"5 2 , 5 6 8 8 3 9 8 2 8 3 2 3 2 , ; 2 6 6 3 e 6 6 , : , ; = ; & & ; 3 6 w y w y g k l p f l v s g g k N V l V L  .+.>.! L } o.;.",
"3 9 e 8 , , 3 6 9 y 8 3 y y 8 e 9 3 8 i h s i 9 6 , = : , 3 3 2 2 3 6 6 6 9 9 e l k g s A / O.:.q.d.z.b.9.! N m x V H Z Y ,.9.y.",
"y w 9 y 8 < 2 2 u s p e p g y p s s k g k s u u , , , , 3 3 3 6 6 6 6 6 9 9 9 y k n l n O.o._ -.q.y.d.q.,.} / +.+.+.;.+.7.m.A.S.",
"g i 6 y u e N H y 9 f p 9 k s u u u u 6 e e 3 , , 3 2 , , , , 2 ; = = & ; , ; < i n U N ~ ~ / / Z O.>.<.,.9.p.x.m.m.x.,.o.+.,.4.",
"H ! i s h k 2.U 6 2 y i 2 s e 2 p s i 9 u e = X + + + o & = = ; , = & # $ $ + # ; e A J C L +.o._ a.a.;.+.+./ L o.;.+./ H ! ;.7.",
">.+.s f k D d.>.u u p s y c e 8 y p g i y =   . + & = ; , 2 2 3 2 : ; ; ; = # = o 2 k A x V #...} d.9.} +.7.+.o.} +.} ! L Y o.o.",
"g g h n g p k N c c k f l H g n k g h n n e 8 w y u i e 9 w e y p i s i i i i h s g H ^  .;.c.l.9.n.x.y.x.l.7.4.y.x.a.y.9.9.a.a.",
"8 8 g k k N k D A c h 9 e e e s f f s k c i p i i 9 3 , , 9 p s p u e 6 3 6 y c f f k l } ;.>. .<.4.+.-.9.q.+.,.l.Z.m.x.y.,.9.,.",
"C Z H H L L L L / ~ Y L L H D v S c c H y   % , * $ @ o + O * q = & $ # @ @ % % * X 5 l N Z L ` } / } +.;.+.+.+.;.,.,.8.9.y.y.y.",
" .} / / }  . . .Y _ o. ./ ! / o.R L R J s O # # X X X X O X X > o o X . X X X X X   4 h x S L R L L / o.+.+.;.7.,.7.,.7.7.9.9.y.",
"7.;.+.o.+.,.;.&.>.<.-.} ! L S Z H S Z l i O . o O X O O o o @ * X X O o X O O O O   0 z V Z L R ! } &.+.+.+.;.,.+.+.+.;.;.+.;.+.",
"&.+.} } o.+.+.o.Y Y L Y ! ! ! ! *.O...C k $   # @ X O o X O @ @ X O O O O o O O X O p J S Z S J ! o.+.o.} o.+.;.;.,.7.7.7.7.,.;.",
"H L L ! ! ! / ! o.+.+. .! H H ! V V F C F 4 X @ X X O @ o O O X O o o X X X X X o $ m #.#.#.} [ L / o.o.+.7.9.9.9.9.y.y.y.y.9.9.",
"H ! `  .} }  .o.o.o.o. .} / / } L ^ _ J ' p O   O @ X X o X O O o o O O O O O O X o f D L ' / R L / o.+.,.7.7.7.,.;.;.+.+.;.,.,.",
"/ } +.+.+.+.;.,.+.o.} } o.+.} ! ^ _ ' R W g % @ o * X X X . O # @ O # # # # O O O @ l D L / _ ^ ! ! } o.+.+.o.o.+.+.o.o.} o.o.} ",
"/ } } } }  .+.;.&.;.;.;.&.+.+.+.*.&.&.#.K p   o @ * * * ; * % * < < ; ; - * # X   * R #.+.o.} / L ! o.,.,.;.+.;.+.+.+.+.o.} / / ",
"o.+. .` /  .+.+.o.7.,.;.,.7.7.7.;.o./ ! ! w X + & % * ; , ; = ; ; * * = % # & & + . g 7.-.o.7.` / ! ! o.;.,.7.a.9.8.7.,.;.o./ ! ",
">.&.&.+.&.>.,.2.7.y.9.,.7.,.;.;.} } L } Z < = 2 : : $ O $ * & $ & % # # % ; < ; ; o 8 ! +.o./ _ } } ;.7.y.y.y.y.9.7.,.+.#.+.+.+.",
";.+.+.;.;.;.,.8.y.y.9.7.9.9.,.;.7.o.} H N , V 9 ; 4 ; * * # & $ # $ & * > < < , 9 w , O.L  .! ` H ! } +.,.9.y.y.7.7.7.,.;.;.;.+.",
"8.,.2.9.8.7.7.y.y.9.9.y.a.9.7.7.+.,.9.7.O.i K.L + : * = * O # $ $ % ; > : * * > ,.-.1 9.} ` -.A ! / / o.;.,.7.,.,.7.7.4.,.+.o.o.",
"9.2.7.9.y.7.9.p.y.a.y.a.a.9.,.7.h.q._ J.N.^ P.! # % X o # O # + # + # O O # # , 8 u 1 S.G.4.>.7.+.} ( O.>.,.,.,.7.8.7.4.>.;.;.;.",
",.;.>.7.7.7.8.9.9.y.9.y.y.,.;.,...9 e G.a./ L.s < ; % o . + + X . o O   O ; - 2 + , # j.H.F._ <.7.;...o.-.,.7.9.y.y.a.a.y.9.7.,.",
"7.7.7.8.9.t.y.y.7.7.7.,.7.,.+.+.x , h J.N.A J.s q ; - $ O # + & % # $ + = < > 9 + , , N.F.H.7.A +.;.+.O.o.;.,.9.y.y.a.l.c.d.9.,.",
"7.9.9.9.9.t.y.y.y.9.,.,.,.,.o.} 6 ; f G.G.! d.f g % # - ; , < e 6 ; ; ; ; & & u 9 & = 4.G.S.G.k u k L ( o.,.q.7.7.4.,.7.9.t.y.y.",
"7.8.8.7.,.,.,.,.2.8.,.+. .+.( 9 ; = ! G.F.G.H 9 w , = % = , , 9 6 3 $ ; , & > ; e # $ o.G.D.H.a.y y h Q ;.q.9.,.8.7.7.9.a.l.a.a.",
"a.y.9.7.7.,.>.>.9.p.8.+. .c s 3 ; + 4.L.F.G.S., & & = $ # 2 s 8 y p 3 + # = = + u & + Y K.C.D.G.n i u y A H H O.y.9.9.7.;.;.;.7.",
"p.9.7.,.2.2.,.>.;.;.7.+. .k 6 > ; = Z.P.H.L.G.=   & # ; & 3 e e 9 8 < & & = + & k 3 = l P.K.S.F./ 2 8 7 f o.;.t.9.9.,.;.;.;.;.,.",
"9.8.,.&.o.} / ! L ! +.} A Y n 3 + < D.J.L.P.M.2 + + = & > = & > ; $ & ; , & . 9 c 2 & w D.P.J.G.J.g 3 w 9 h } -.,.,.,.7.8.9.7.,.",
";.>.;.+. .} } } ! / Y u q.J.y = # 2 G.K.H.L.G.s # o 2 3 # ; & + * $ * $ $ $ + h Y = $ 2 _ F.L.P.P.S.8 e y 3 l -.+.7.p.9.4.;.;.+.",
"/ } o.} / / ` } ;.S y U J.D.U ; % y H.H.G.G.L.( + # e u > # = ; * % $ O . + # H l + ; 2 g 9.F.H.G.P.,.e w 7 i ( ,.8.9.7.;.+. ./ ",
"! / / ! H V x x V y = u >., = # X i G.F.F.S.H.j.3 + s s s # + # # O O @ + o + W 6   = & i +.Z.S.D.F.J.f , i u L +.+.+.*.,.,.#.! ",
"! / / / ! L J H s > # < >.= o +   w G.K.D.H.G.G.h . 8 ^ g C = + # $ o o + # # F 8 % ; o y / Z.K.J.G.P.j.w u 3 s S / o.+.-.;.+.} ",
"G m m z m j j p < : * 1 m * o X   > :.*.h.2.;.p.i + X h i l h O o . .   O X   q >   %   9 k #.v.t.c.N.{ 7 7 5 7 a d j l m m m ' ",
"R 1 o   X X O O X @ X % o X : 8 s < 8 s & i y 8 e 7 u 7 $   * O * < r t < t 5 * , w 6 i & q a 8 6 y *   O X * X @ % @ X O X 2 [ ",
"1.< O * * X O X @ O $ * X   u 1.h S /  .5 y. .+.g ^ ^ m . % O O : s j #.u.#.0 r s W  .j # 4.m l 1...u $ @ O o * @ $ O O %   < 7.",
"{ >     X X O # . O O   * o p R G [ ` 7 $ C k J j Z l u   . X   @ j G G R ' h r g x F d 8 J k  .R h     o @ @   X X . X o   2 y.",
"#.y 1 < 6 ; X O 1 1 X O #   * - 8 $ 5 w y g s a y - * @ w y 0 y r w > & * 0 u > 1 o % 1 3 p l g u g 2 = O # O % 9 6 5 6 3 6 f q.",
" .R ^ #.R 6 X . 7 a X X 6 1 & 8 O   < D.P.H.P.P...%   # C P.K.P.P.m.>   y A.+.< X O o   w G.K.P.P.L.>.$ . & O p x.+.-.o. .<.>.>.",
"_ +.;.O.h % O @ O @ O . 5 #.N.x + # # 1.J.H.G.G.1.* O X w S.L.H.K.G.H - & l C : & o $ # , d.L.G.K.G.s   & O = k 9.#.+...U ^ O.+.",
"C W / S q . O   O X @ . e F.F.H - O $ p D.K.K.H.g.q   X = c D.J.J.K.S.9 . ; y & X #   + A D.H.L.G.S $ o > ; -  .q.o. .-.-.>.>.4.",
"A Z A J 6 8 o s e $ # X e z A.L < # O + ;.F.D.D.S._ < = o X J F.H.K.H.M., = , # . + = x S.N.d.x.k.e & 6 ; $ 2 m.,.<.} / ^ / o.;.",
"Q Y L V = f 8.n.5 1 # O     ,.8     & X Z G.A.A.Z.C.^ 6 2 & , q.F.J.G.J.D.8 3 2   ; +.x.} 2. .k.k w 8 ; ; $ C G.-.} } o.;.;.o.} ",
"( J -.s   k H.O.5 & ; % # O , > # & # . 2 Z.G.G.D.x.V.n # ; + , v.G.K.G.G.S.8 = ; g ` L o.d.S.g , =   # < ; h.F.o.} / H H H R ! ",
"q. .H 2 7 S #.p.V $ , $ .   O % # O   .   h A.Z.D.Z.z. .& , , # S N.G.H.x.G.G.p & f D  .N.L./ $ o $ ; 2 # k L.A./ / / L V x N V ",
"H / n . $ +   f   * 7 / 1 a ; # + o & # o & J k.V.F.n.y.3 . = : #.b.A.D.G.S.F.G.U f j.S.K.4.=   & ; 3 $ i H.L.n.L H H H H H x h ",
"H x i O . # X O #   % p.J.;.  + % # # # o   ; } h.b.G.D.l . + % L A.9.V.v.C.M.Z.H.c A j.e o . , = $ o = F.P.G.t.S H L Y ! L Z n ",
"C h , X @ X O O O # ; #.F./ : . & ; % ; = = . s n H q.h.q.s * + s G.F.a.,.y.7.l 4.F.<.% . = = o & = 6 O.G.F.P.t.H / o.+.o.} ! Z ",
"i w * X   O * # X % p ' t.R y # o O + o $ o = 3 l n V -.h.n.g = & 9 L / Z C k 8 3 g Y H 8 # < w e 9 e m.H.K.G.7.} ! Z V H _ } ! ",
"r 7 & , 2 3 9 + . X & e h 7 # o ; = * 3 < $ # 6 H l V J 8.Z.,.2 # O 5 s z z x a = o = g Y s 6 8 9 8 w g 4.n.d.*.Z k R ! Y O.>. .",
"w.[ 3 6 ^ 9.m u % o o > 8 = o = 1 x N.7.8 . . % l b.h.4.,.j.4.f % * # & 3 d f k p 3 +   $ 6 , ; # $ + + O = 3 3 5 8 w i s n d e ",
",.e + p 7.S.k q > # # X + # + . q F.P.F.W - O & 6 V.A.V.d.4.O.} 2 $ ; O . * y f y w 3 , . o + $ = 8 6 8 y h m e i e g  .d._ ( Y ",
"U 2 + u # s %     O 4 9 = + o X 0 i v.! y 6 # # # f J Y }  .H C l 4 * % , $ 2 9 s k g s e , > # ; & = 8 w k Z.L.S.C.S.P.H.G.n._ ",
"+.; $   . = $   @   a N.%   # # O   h 8   $ & & o e G.D.V.V.h.7.r.a   % # & ; % 2 g A g J c u 2   o o   +   & ' F.G.G.F.K.L.P.b.",
"A > # + + .   * @ @ m 6./ # o   X + O O = = $ + # # b.S.V.S.Z.x.v.b.8   + O X * $ , X.q.-.-.-.o.8 . O + . # o o p 9.m.Z.C.G.J.P.",
"y $ +   < $ $ X X @ . 6 7 & o # X $ # + + $ o = = + _ L.G.F.D.D.b.B./ # +   o   +   g C.j.2.2.X.k = . # O o . X   9 -.y.n.S.G.H.",
"e ; ; ; h O X % @ @ . % ;   * > $ 7 & + + = , = 3 , u C.S.F.D.V.A.Z.S.p 3 ; , 2 3 > = Y y.n.C.k.q. .f 6 , = 1 s w # y q.h.m.S.A.",
"y = i U J 6 * * % : ; ; , ; # < p 8 X * : < 2 3 i s i  .F.y.q.h.,.#.*.R i e q d u s f f q.k.j.:.9.y.q.>.f 8 8 g N x h Y D.D.D.C.",
"7 9 i J s r * @ % : 2 , ; ; 2 i g p 3 : 3 e w 9 y f e v c l d Z 4.V 9 6 3 6 y i 2 = & 8 u k g s i g A >.x.( C O.o.! O...>.y.9.y.",
"> 0 i > < * 4 @ 1 , 2 % $ > ; = 4 2 7 0 i Q o.N k h u s s i 9 6 q 8 ; 8 i e g n N k s k 2 2 = & 6 u p c d.,.o.x.o.} 9.>.! 7.y.7.",
"X $ y i w % @ o , g 8.s # $ & + r p < * , 3 = , i 6 8 i o.m.b.4.a.x.8.y.O.8 8 i s y u i g ~ j.q.:.z.q.>.-.C 9 8 s g f l k o.Z.Z.",
"#   u D r *   * O s l.f # $ #   4 p * < = > + + e , 2 e c b.Z.V.b.m.m.N.d.g e f A N A h A -.V.n.<.:.( O.} / s 3 u f s x H ,.D.H.",
"o   l j r * O     5 #.e o + + o 4 m O @ $ , . = f w u y l -.b.N.y.d.N.y.y.Y e 9 y g x l l Z +.x.S.>...Q } ~ A p 6 y h n V ! } n.",
"#   d m p # X % o 2 ! 8 . # o . : p @ * + , # + u 9 p e l ~ d.>. .O.3.*.-.R e q g h f h f n / d.>.Y _ ..o./ Y s 8 8 u e u i s H ",
"X X f G k * X #   6 >.w . + o o ; 0 O + . ; # # 3 3 , 2 2 s f y d h C O.4.*.n S ! J A g e w s N g g k n v  ./ n l f y w w 6 9 6 "
};
