/* XPM */
static char *aaf8be7bdc7045b48e4763685b0c326dOdayjcXrHXqRFcqi[] = {
/* columns rows colors chars-per-pixel */
"64 64 175 2 ",
"   c #EFEFEF",
".  c gray93",
"X  c #ECECEC",
"o  c #EEEEEE",
"O  c #F1F1F1",
"+  c gray64",
"@  c #4E4E4E",
"#  c #505050",
"$  c gray31",
"%  c #5B5B5B",
"&  c LightGray",
"*  c gray82",
"=  c #5A5B5B",
"-  c #A9A9A9",
";  c #F2F3F3",
":  c #808080",
">  c black",
",  c gray6",
"<  c #C5C5C5",
"1  c gray95",
"2  c #C3C3C3",
"3  c #0E0E0E",
"4  c #898989",
"5  c #F3F3F3",
"6  c gray51",
"7  c #131313",
"8  c #C6C6C6",
"9  c gray77",
"0  c #111111",
"q  c #8A8B8B",
"w  c #C3C4C4",
"e  c #010101",
"r  c gray3",
"t  c #070707",
"y  c #191919",
"u  c #C6C7C7",
"i  c #181818",
"p  c #060606",
"a  c #020202",
"s  c gray38",
"d  c #B1B1B1",
"f  c #AFAFAF",
"g  c #AEAEAE",
"h  c #AEAFAF",
"j  c #AFB0B0",
"k  c gray69",
"l  c gray70",
"z  c gray89",
"x  c gray94",
"c  c #B3B3B4",
"v  c #ADAEAE",
"b  c #606060",
"n  c gray1",
"m  c #A4A4A4",
"M  c #F4F4F4",
"N  c #151515",
"B  c #A0A0A0",
"V  c #9F9F9F",
"C  c #040404",
"Z  c #151516",
"A  c #5F5F60",
"S  c #606061",
"D  c #656565",
"F  c #626262",
"G  c #6F7070",
"H  c #E5E6E6",
"J  c #777777",
"K  c gray43",
"L  c #E1E1E1",
"P  c gray37",
"I  c #E2E2E2",
"U  c gray46",
"Y  c gray8",
"T  c gray62",
"R  c gray39",
"E  c #5F5F5F",
"W  c #9E9F9F",
"Q  c #141515",
"!  c #606161",
"~  c #141415",
"^  c #636464",
"/  c #6C6C6C",
"(  c #9D9D9E",
")  c gray45",
"_  c #F1F2F2",
"`  c gray61",
"'  c gray24",
"]  c #3F3F3F",
"[  c #3C3C3C",
"{  c gray56",
"}  c #9D9D9D",
"|  c #646464",
" . c #959595",
".. c gray25",
"X. c #3E3E3E",
"o. c #A2A2A2",
"O. c gray92",
"+. c #E7E7E7",
"@. c #EAEBEB",
"#. c #9C9D9D",
"$. c #E7E8E8",
"%. c #030404",
"&. c #414142",
"*. c #161616",
"=. c #131314",
"-. c #626263",
";. c #9B9C9C",
":. c #F0F1F1",
">. c #BDBEBE",
",. c gray53",
"<. c #888888",
"1. c #868686",
"2. c gray72",
"3. c gray40",
"4. c gray90",
"5. c #E4E4E4",
"6. c #B9B9B9",
"7. c gray76",
"8. c #818181",
"9. c #6D6E6E",
"0. c #9B9B9B",
"q. c #747474",
"w. c #89898A",
"e. c #9B9B9C",
"r. c #676767",
"t. c #8B8B8B",
"y. c #9A9A9A",
"u. c #676868",
"i. c #E4E5E5",
"p. c #686868",
"a. c gray7",
"s. c #EFF0F0",
"d. c #9A9A9B",
"f. c #020203",
"g. c #E3E3E4",
"h. c #757676",
"j. c gray44",
"k. c DimGray",
"l. c #747575",
"z. c #2D2D2D",
"x. c #646565",
"c. c #151616",
"v. c gray18",
"b. c #E3E4E4",
"n. c gray42",
"m. c #E6E6E6",
"M. c gray35",
"N. c #D2D2D3",
"B. c gray87",
"V. c gainsboro",
"C. c #DDDDDD",
"Z. c #EBECEC",
"A. c #DCDDDD",
"S. c #D1D2D2",
"D. c #585858",
"F. c #222222",
"G. c gray17",
"H. c #2A2A2A",
"J. c gray16",
"K. c #393939",
"L. c gray80",
"P. c #CBCBCB",
"I. c gray22",
"U. c #101010",
"Y. c #818282",
"T. c gray54",
"R. c #272727",
"E. c gray79",
"W. c gray78",
"Q. c gray15",
"!. c #929292",
"~. c #CACACA",
"^. c gray91",
"/. c #C8C9C9",
"(. c white",
/* pixels */
"                                                                                                                                ",
"                                                                                                                                ",
"                                                                                                                                ",
"        . X X X X X X X X X X X X X X X X X X X X X o                     o X X X X X X X X X X X X X X X X X X X X X .         ",
"      O + @ # # # # # # # # # # # # # # # # # # $ % & O                 O * = $ # # # # # # # # # # # # # # # # # # $ - O       ",
"      ; : > > > > > > > > > > > > > > > > > > > > , < 1                 1 2 3 > > > > > > > > > > > > > > > > > > > > 4 5       ",
"      ; 6 > > > > > > > > > > > > > > > > > > > > 7 8 1                 1 9 0 > > > > > > > > > > > > > > > > > > > > q 5       ",
"      ; 6 > > > > > > > > > > > > > > > > > > > > 7 8 1                 1 w 0 > > > > > > > > > > > > > > > > > > > > q 5       ",
"      5 6 > > > > > > > > e r r t t t t t t t r t y u 1                 1 < i p t t t t t t t t r t e > > > > > > > > q 5       ",
"      5 6 > > > > > > > > a s d f g h h h g j k k l z x                 x z c g h h h h g v g f d b n > > > > > > > > q 5       ",
"      5 6 > > > > > > > > > y m M 5 5 5 5 5 5 5 5 1 x                     x 1 5 5 5 5 5 5 5 5 M + y > > > > > > > > > q 5       ",
"      5 6 > > > > > > > > > > N B x                                                         x B N > > > > > > > > > > q 5       ",
"      5 6 > > > > > > > > > > > N B x                                                     x V N > > > > > > > > > > > q 5       ",
"      5 6 > > > > 0 C > > > > > > Z B x                                                 x V N > > > > > > C 0 > > > > q 5       ",
"      5 6 > > > > A S e > > > > > > N B x                                             x V N > > > > > > e D F > > > > q 5       ",
"      5 6 > > > > G z b e > > > > > > N V x                                         x V N > > > > > > e F H J > > > > q 5       ",
"      5 6 > > > > K 5 L P e > > > > > > N V x                                     x V N > > > > > > e F I M U > > > > q 5       ",
"      5 6 > > > > K O O L b e > > > > > > Y T x                                 x V N > > > > > > e F I O 1 U > > > > q 5       ",
"      5 6 > > > > K O   O L b e > > > > > > N T x                             x T N > > > > > > e R z O   1 U > > > > q 5       ",
"      5 6 > > > > K O     O I E e > > > > > > N W x                         x T N > > > > > > e R I O     1 U > > > > q 5       ",
"      5 6 > > > > K O       O L s e > > > > > > Y V x                     x V Q > > > > > > e R z O       1 U > > > > q 5       ",
"      5 6 > > > > K O         O I s e > > > > > > N T x                 x T Y > > > > > > e R z O         1 U > > > > q 5       ",
"      ; 6 > > > > K O           O L ! e > > > > > > ~ T x             x T N > > > > > > e ^ z O           1 U > > > > q 5       ",
"      ; 6 > > > > K O             O I s e > > > > > > Y T x         x T Y > > > > > > a R z O             1 U > > > > q 5       ",
"      5 : > > > > / O               O I s e > > > > > > Y ( x     x T Y > > > > > > e R z O               1 ) > > > > 4 5       ",
"      _ ` ' ] ] [ { O                 O I b e > > > > > > Y T x x } Y > > > > > > a | z O                 O  .' ..] X.o.1       ",
"        O.+.+.+.+.@.                    O I s e > > > > > > Y } #.Y > > > > > > a | z O                     O.+.$.+.+.O.        ",
"                                          O I F e > > > > > > , , > > > > > > e | z O                                           ",
"                                            O I F e > > > > > > > > > > > > a | z O                                             ",
"                                              O I s e > > > > > > > > > > a | z O                                               ",
"                                                O I F n > > > > > > > > %.| z O                                                 ",
"                                                  O L ] > > > > > > > > &.L O                                                   ",
"                                                  x ( *.> > > > > > > > *.( x                                                   ",
"                                                x #.Y > > > > > > > > > > Y ` x                                                 ",
"                                              x } Y > > > > > > > > > > > > 7 #.x                                               ",
"                                            x #.=.> > > > > > > > > > > > > > 7 ` x                                             ",
"        O 5 5 5 5 O                       x ` 7 > > > > > > a -.b a > > > > > > 7 ;.x                       O 5 5 5 5 O         ",
"      :.>.,.<.<.1.2.x                   x ` 7 > > > > > > a 3.4.5.R e > > > > > > 7 ` x                   x 6.,.<.4 <.7.O       ",
"      ; 8.> > > > 9.O                 x ` 7 > > > > > > a 3.5.O O z F e > > > > > > 7 0.x                 1 q.> > > > w.5       ",
"      ; 6 > > > > K O               x e.7 > > > > > > a r.5.O     O z | e > > > > > > 7 0.x               1 U > > > > t.5       ",
"      5 6 > > > > K O             x ` 7 > > > > > > a r.5.O         O z | a > > > > > > 7 0.x             1 U > > > > q 5       ",
"      ; 6 > > > > K O           x ` 7 > > > > > > a 3.5.O             O z | e > > > > > > 7 0.x           1 U > > > > q 5       ",
"      ; 6 > > > > K O         x 0.7 > > > > > > a r.4.O                 O z | a > > > > > > 7 0.x         1 U > > > > q 5       ",
"      5 6 > > > > K O       x 0.7 > > > > > > a r.5.O                     O z R a > > > > > > 7 0.x       1 U > > > > q 5       ",
"      5 6 > > > > K O     x 0.7 > > > > > > a r.5.O                         O z | a > > > > > > 7 0.x     1 U > > > > t.5       ",
"      5 6 > > > > K O   x y.7 > > > > > > a u.i.O                             O z | a > > > > > > 7 y.x   1 U > > > > q 5       ",
"      5 6 > > > > K 1 x 0.7 > > > > > > a p.5.O                                 O z | a > > > > > > a.y.s.1 U > > > > q 5       ",
"      5 6 > > > > K 1 d.a.> > > > > > f.r.5.O                                     O g.D a > > > > > > a.y.5 h.> > > > q 5       ",
"      5 6 > > > > j.` 7 > > > > > > a k.4.O                                         O z D a > > > > > > a.} l.> > > > q 5       ",
"      5 6 > > > > z.N > > > > > > a k.5.O                                             O z x.a > > > > > > c.v.> > > > q 5       ",
"      5 6 > > > > > > > > > > > n p.4.O                                                 O b.D a > > > > > > > > > > > q 5       ",
"      5 6 > > > > > > > > > > a k.4.O                                                     O z 3.a > > > > > > > > > > q 5       ",
"      5 6 > > > > > > > > > C n.m.1 x x x x x x x x                         x x x x x x x x 1 4.3.n > > > > > > > > > q 5       ",
"      5 6 > > > > > > > > e M.N.B.V.C.V.V.V.V.V.C.B.X                     Z.B.V.V.V.V.V.V.A.A.B.S.D.e > > > > > > > > q 5       ",
"      5 6 > > > > > > > > a F.G.H.H.H.H.H.H.H.H.J.K.L.O                 O P.I.J.H.H.H.H.H.H.H.H.G.F.a > > > > > > > > q 5       ",
"      5 6 > > > > > > > > > > > > > > > > > > > > U.9 1                 1 w , > > > > > > > > > > > > > > > > > > > > q 5       ",
"      ; 6 > > > > > > > > > > > > > > > > > > > > a.9 1                 1 9 a.> > > > > > > > > > > > > > > > > > > > q 5       ",
"      ; Y.> > > > > > > > > > > > > > > > > > > > 0 9 1                 1 9 U.> > > > > > > > > > > > > > > > > > > > T.5       ",
"      1 w.Y *.*.*.*.*.*.*.*.*.*.*.*.*.*.*.*.*.*.N R.E.O                 O W.Q.Z *.*.*.*.*.*.*.*.*.*.*.*.*.*.*.*.*.*.N !.1       ",
"      s.V.E.~.~.~.~.~.~.~.~.~.~.~.~.~.~.~.~.~.~.E.L.^.                    ^.L.~.~.~.~.~.~.~.~.~.~.~.~.~.~.~.~.~.~.~./.B.x       ",
"        x O O O O O O O O O O O O O O O O O O O O O                         O O O O O O O O O O O O O O O O O O O O O x         ",
"                                                                                                                                ",
"                                                                                                                                ",
"                                                                                                                                "
};
