/* XPM */
static char *_84a0176ee224373ecd913fc378adb665DDrrh2hJOjucEKa[] = {
/* columns rows colors chars-per-pixel */
"64 64 232 2 ",
"   c #05040C",
".  c #09070E",
"X  c #0B090F",
"o  c #140E0D",
"O  c #050614",
"+  c #090711",
"@  c #0D0B13",
"#  c #0C0C1B",
"$  c #110E15",
"%  c #100F1B",
"&  c #190D10",
"*  c #0F101F",
"=  c #121017",
"-  c #14131C",
";  c #19161D",
":  c #15181E",
">  c #1C191D",
",  c #1B1415",
"<  c #16110F",
"1  c #221C1C",
"2  c #281A1D",
"3  c #381C16",
"4  c #3E221C",
"5  c #0D1227",
"6  c #141422",
"7  c #181723",
"8  c #1B1A24",
"9  c #1D1D2A",
"0  c #171827",
"q  c #211E25",
"w  c #201F2A",
"e  c #252224",
"r  c #2B2326",
"t  c #23222D",
"y  c #29262C",
"u  c #2E2A2A",
"i  c #332E2D",
"p  c #382727",
"a  c #37322F",
"s  c #252532",
"d  c #282732",
"f  c #2B2A34",
"g  c #2E2D3A",
"h  c #312F39",
"j  c #302D33",
"k  c #323034",
"l  c #3E3836",
"z  c #34323C",
"x  c #3C3839",
"c  c #2F313F",
"v  c #59352B",
"b  c #453937",
"n  c #573B35",
"m  c #4B2D26",
"M  c #5D3022",
"N  c #48413C",
"B  c #58463E",
"V  c #6B4336",
"C  c #6F493C",
"Z  c #7A4837",
"A  c #343543",
"S  c #3C3A44",
"D  c #3D3E4B",
"F  c #363847",
"G  c #303547",
"H  c #423E46",
"J  c #3E4254",
"K  c #3F404F",
"L  c #444144",
"P  c #44424B",
"I  c #49464E",
"U  c #4D4746",
"Y  c #534A48",
"T  c #58514C",
"R  c #444552",
"E  c #4C4B54",
"W  c #484A5A",
"Q  c #514E55",
"!  c #504F59",
"~  c #555154",
"^  c #54525B",
"/  c #59575D",
"(  c #5B595D",
")  c #5B5452",
"_  c #4E505F",
"`  c #795549",
"'  c #625A57",
"]  c #7C5C52",
"[  c #6C4F48",
"{  c #67615E",
"}  c #7E6159",
"|  c #4C5266",
" . c #545562",
".. c #5A5D6B",
"X. c #585A66",
"o. c #555C72",
"O. c #615F66",
"+. c #5F6477",
"@. c #65646B",
"#. c #686568",
"$. c #776E6C",
"%. c #636573",
"&. c #6C6B73",
"*. c #6A6E7D",
"=. c #656775",
"-. c #716E73",
";. c #6E717C",
":. c #757375",
">. c #73737B",
",. c #7C7B7E",
"<. c #7A7779",
"1. c #7D7169",
"2. c #814B3A",
"3. c #8A523F",
"4. c #875544",
"5. c #945C4B",
"6. c #915746",
"7. c #825E54",
"8. c #985F50",
"9. c #89655A",
"0. c #9C6455",
"q. c #996654",
"w. c #9A614F",
"e. c #A46A5A",
"r. c #A46B56",
"t. c #AF755F",
"y. c #836A63",
"u. c #9F7161",
"i. c #877873",
"p. c #8F6F65",
"a. c #AC7664",
"s. c #B5796A",
"d. c #BD7F71",
"f. c #A57E70",
"g. c #92827C",
"h. c #B7816B",
"j. c #AE8576",
"k. c #B78878",
"l. c #C78A79",
"z. c #CB9178",
"x. c #D1957B",
"c. c #C2866E",
"v. c #6C7284",
"b. c #7A7B85",
"n. c #767A8B",
"m. c #7D7F8B",
"M. c #727583",
"N. c #817F84",
"B. c #7E818F",
"V. c #7D8191",
"C. c #84848A",
"Z. c #8D8B8C",
"A. c #878283",
"S. c #948B87",
"D. c #9A918B",
"F. c #868895",
"G. c #8C8C93",
"H. c #8A8D9B",
"J. c #838694",
"K. c #93949C",
"L. c #979599",
"P. c #8F8F98",
"I. c #B79589",
"U. c #BD9D93",
"Y. c #B6A49D",
"T. c #ACA19A",
"R. c #9B9CA2",
"E. c #979AA7",
"W. c #8E93A3",
"Q. c #A19FA2",
"!. c #9DA1AE",
"~. c #9EA2B0",
"^. c #A4A4AB",
"/. c #ABA9AB",
"(. c #A4A3A6",
"). c #ABACB4",
"_. c #A6A9B5",
"`. c #AFB0B9",
"'. c #B4B3B4",
"]. c #BCBABD",
"[. c #B6B5B8",
"{. c #B4B1B1",
"}. c #CD9384",
"|. c #C99687",
" X c #D29D8C",
".X c #D69986",
"XX c #D39E90",
"oX c #C58E80",
"OX c #DDA185",
"+X c #D6A28D",
"@X c #C3A397",
"#X c #DCAB9C",
"$X c #DAA494",
"%X c #D9B09E",
"&X c #E5AD93",
"*X c #E2AB9C",
"=X c #E8AF95",
"-X c #E4AB91",
";X c #D9B3A4",
":X c #C5B0A7",
">X c #E7B9A6",
",X c #EBB7A4",
"<X c #CFC2BB",
"1X c #EDC2AC",
"2X c #E7C5B6",
"3X c #BDBDC3",
"4X c #C6C6CA",
"5X c #CBCACE",
"6X c #C6C4C5",
"7X c #D3CBC8",
"8X c #CBCCD1",
"9X c #D4D3D4",
"0X c #DBD6D3",
"qX c #DDDCDD",
"wX c #D5D6D8",
"eX c #DBD0CB",
"rX c #E5DBD6",
"tX c #E6CFC7",
"yX c #E7E1DE",
"uX c #DEDEE1",
"iX c #E0DFE1",
"pX c #E4E3E4",
"aX c #EBEBEB",
"sX c #E8E7E7",
"dX c #F1EEEC",
"fX c #F6F1EE",
"gX c #EEEEF1",
"hX c #F6F5F6",
"jX c #F8F7F6",
"kX c #F9F8F7",
"lX c #F8F8F8",
"zX c #F8F7F8",
/* pixels */
"lXzXzXlXlXlXlXhXlXlXlXlXlXhXlXlXlXlXlXhXlXlXlXlXlXlXhXlXlXlXlXlXlXlXlXkXlXlXkXlXlXlXlXlXlXlXlXlXlXlXzXlXlXlXlXlXlXlXlXlXlXhXlXlX",
"lXlXlXzXlXhXlXlXlXlXlXhXlXlXlXlXlXhXlXlXlXlXhXlXlXlXlXlXlXlXlXlXlXlXlXlXlXlXlXlXlXlXlXlXlXlXlXlXzXzXlXzXlXlXkXzXzXkXhXlXlXlXlXlX",
"lXzXzXlXlXlXlXhXlXlXlXlXlXlXlXlXlXlXlXhXlXlXlXlXlXlXlXlXlXlXlXlXlXlXlXlXlXlXlXlXlXlXlXlXlXlXlXlXlXzXzXlXhXlXlXlXlXlXlXlXlXlXlXlX",
"zXzXlXzXlXlXlXlXlXhXlXlXlXlXlXhXlXlXlXlXlXhXlXlXlXlXhXlXlXlXlXlXlXlXlXsXrXrXhXlXlXlXlXlXlXlXlXlXzXlXzXzXlXlXlXlXlXhXlXlXlXlXlXhX",
"lXzXlXlXlXzXlXzXlXlXhXlXlXlXlXlXlXhXlXlXlXlXlXzXlXhXlXlXlXlXlXlXdXY.y.7.u.j.I.<XkXlXlXlXlXzXzXlXlXzXlXlXlXlXlXhXlXlXlXlXhXlXlXlX",
"zXlXzXlXlXlXlXzXlXlXlXlXhXlXlXlXzXlXlXlXlXzXlXlXlXlXlXlXhXlXlXkXi.n 9.h.k.k.I.j.Y.lXlXlXlXlXkXzXlXlXkXhXlXlXlXlXhXlXlXhXlXlXhXlX",
"zXzXlXlXzXzXlXkXhXlXlXlXlXlXhXlXzXlXzXlXzXlXzXlXlXlXhXlXlXlXlX7XB 9.d.}.XX X$X%X|.eXlXlXzXlXlXzXzXzXlXlXlXlXhXlXlXlXlXlXhXlXlXlX",
"kXlXlXzXlXlXlXlXlXlXlXlXhXlXlXlXlXlXlXlXzXlXlXlXlXlXlXhXhXlXlXg.` a.a.l.XX*X;X>X#XY.kXlXzXlXzXlXlXlXlXzXzXlXlXlXlXlXlXlXlXlXlXlX",
"lXlXlXhXlXlXlXlXlXlXlXlXhXlXlXlXlXzXzXlXzXlXzXlXlXlXlXlXlXlX7XZ ` r.t.l.XX*X*X*X*XU.sXlXzXzXzXzXhXlXlXlXlXlXhXlXlXhXhXlXlXlXlXhX",
"hXlXlXlXlXhXlXlXhXlXlXlXlXlXlXhXzXlXlXzXzXzXlXlXlXlXlXlXlXlXI.M 4.r.a.j.}.*X*X*X$X@XgXlXzXlXzXzXlXlXlXlXlXlXlXlXlXlXlXlXlXlXlXlX",
"lXlXlXlXlXlXlXlXlXlXlXlXlXhXlXlXlXlXlXlXlXzXlXkXlXlXlXlXlXlX:XZ 5.5.4.Z 0.}.}.oXXXU.dXlXzXlXlXlXlXlXlXhXlXhXlXlXlXlXhXlXlXlXlXlX",
"lXlXlXlXlXhXhXlXlXlXhXlXlXlXlXlXlXlXlXlXzXlXzXzXlXlXlXlXlXlX:X4.q.s.u.a.6.s.8.e.l.@XfXlXlXlXlXlXlXlXlXlXlXlXlXhXlXlXlXlXlXlXhXlX",
"lXlXlXlXlXhXlXlXlXlXlXlXlXhXlXlXlXlXlXlXlXlXlXlXlXlXlXlXzXlXrX5.6.s.}.}.d. Xd. XXXtXlXlXlXlXlXlXhXlXlXlXlXlXlXlXlXlXlXhXlXlXlXlX",
"lXhXlXlXlXlXlXlXlXlXhXlXlXlXlXlXlXlXlXlXlXlXlXlXlXlXlXlXlXgX].4.3.e.l.d.oX*X$X*X;XdXlXlXlXlXlXlXlXlXhXlXhXlXlXlXlXlXlXlXlXhXlXlX",
"lXlXhXlXlXlXlXlXlXlXlXlXlXlXlXlXlXlXlXlXlXlXlXgXgXgXaX8X3Xv.G v 2.r.d.8.a..X}.$XtXlXlXlXlXlXlXlXlXhXlXlXlXlXlXlXhXlXlXlXlXlXhXlX",
"hXlXlXlXlXhXlXlXlXhXhXlXlXlXlXhXlXlXlXlXlXlXuX_.W.W.V.=.G 5 # 3 V 6.8.0.e.oXl.XXfXlXlXlXlXlXlXlXlXlXlXlXlXlXhXlXlXlXlXlXhXlXlXlX",
"lXlXlXlXlXhXlXlXzXlXzXlXzXlXlXlXlXzXkXlXzXwX3XP.N.n.v.M.H 5 O & m Z 5.6.e.s.d.U.9XiXlXlXlXlXlXlXlXlXhXlXlXlXlXhXlXlXlXlXlXlXlXlX",
"lXlXlXhXlXlXlXlXlXzXzXkXzXlXzXlXlXlXlXgX`.3XQ.G.%.H W W 9 5 # & 4 M 6.s.d.s.7.*.!.^.9XjXlXlXlXlXlXlXlXlXlXhXlXlXlXlXlXhXlXhXlXlX",
"lXlXlXlXlXlXlXhXzXlXlXzXlXzXlXlXkXlXlX`.E.^.[.:.H z 0 # # 5 O & m v v Z e.n h W H.K.K.qXlXlXlXlXlXlXlXlXlXlXhXlXlXlXlXlXlXlXlXhX",
"lXhXlXlXlXlXlXlXzXlXzXlXlXlXlXzXzXlXaXW.P.^./.U h h A # 5 6 5 @ m V V 4.7.2 G J W R F._.sXlXlXlXlXlXlXhXlXlXlXlXhXlXlXlXhXlXlXlX",
"hXlXlXlXhXlXlXlXlXlXzXzXlXlXlXlXlXlX4XE.H.'.#.I g s F 6 O 6 * # p V Z 0.n 9 D R W A R E.4XlXlXlXlXhXhXlXlXlXlXlXhXlXlXlXlXlXlXlX",
"lXlXlXlXlXlXlXhXlXlXzXlXlXlXlXlXlXhX^.^.!.N.^ P s g g d O O O # ; V 5.` r g R R J G s X.E.qXlXlXlXlXlXlXlXlXlXlXlXlXlXlXlXlXlXhX",
"lXlXlXhXlXhXlXlXlXlXlXlXlXlXlXlXlX8XE.K.^.E P S 0 d w S 7 # # # + [ j.n 8 t 7 6 9 t 0 d n.[.lXlXlXlXhXlXlXlXlXhXlXlXlXhXlXhXlXlX",
"lXlXlXlXlXlXlXlXlXlXlXlXlXlXlXlXkXW.W.{.>.P P h 6 s 6 A h 6 6 9 9 H g.y y O.S 6 0 0 0 9 S `.lXlXlXlXlXlXhXlXlXlXlXlXlXlXlXlXlXlX",
"hXlXlXlXlXhXlXlXlXlXlXlXlXlXlXlX8Xn.^.^.I ^ Q h % w 6 9 H s 5 0 h z P S Q :.~ w 6 * 6 0 s M.hXlXlXlXlXlXlXlXlXlXhXlXlXlXlXlXhXlX",
"lXlXhXlXlXlXlXlXlXhXlXlXlXlXlXlXF.*.).^ H  .O.H # 0 6 5 H H 9 7 w f z h S S h 8 % O - 9 s ^ 8XlXlXlXlXlXlXlXhXlXlXlXhXlXlXlXlXlX",
"lXhXlXlXlXlXlXlXlXlXhXlXlXlXlXgXb.G.b.9 d ^ @.F # 6 6 * d H 9 6 7 9 w f F H d * O # : 6 0 g V.8XlXlXlXlXlXlXlXlXlXhXlXlXlXlXlXlX",
"lXlXlXlXhXlXlXlXhXlXlXlXlXlXlXwX@.b.D S A ^ / w O * 6 * 0 H F 7 7 w y S Q S 7 %   @ - - : 0 c b.wXlXlXlXlXhXlXhXlXlXlXlXlXlXlXhX",
"lXlXlXlXlXhXhXlXlXlXlXlXlXlX9XL.G.S # 0 g f 9 * O 5 6 * * A H s 9 w q I H 9 % q k   @ @ @ # # G P.gXlXlXlXlXlXlXlXlXlXhXlXlXlXlX",
"lXlXlXlXlXlXlXlXlXlXlXlXlX].^.L.Q.A 9 # 0 s 9 # # # 6 % % 7 H s t t 6 q 9 6 % @.'.=   @ @ @ s +.V.pXlXlXhXlXlXlXlXlXlXlXhXlXhXlX",
"hXlXlXhXlXlXhXlXlXlXhXlXgXB...P.%.g h A 9 t 0 * # # # 6 % % A d s 9 - 8 7 6 q ].lX&.$ @ O * 9 G H.).zXlXlXlXlXlXhXlXlXlXhXlXlXlX",
"lXlXlXlXlXlXlXlXhXlXlXlXaX+.n.(.&.9 g D F w * * # # * * 6 % w A g d s w q -  .hXlXwXk O 9 G W V.E.F.8XlXlXlXhXlXlXlXlXlXlXlXlXlX",
"zXlXzXlXlXzXzXlXlXlXlXlXpXv.m.^.K.E.N...^ F 0 # # # 6 % 6 % - g h g s 8 q 9 '.lXlXlXC.F o.H._.E.~.~.).lXlXlXlXlXlXlXlXlXlXlXlXzX",
"lXlXlXlXlXlXlXlXlXlXlXlXsX| =.M.K.N.H.).N..._ A 0 % 6 6 % - % t h d w d 6 H hXlXsXL.X.| H._.~.)._.n.).lXlXlXlXlXlXlXlXlXlXlXzXlX",
"lXzXlXzXzXlXzXlXlXlXlXlXlXC.X.G.b.N.F.F.G.b.R.R.N.=. .I 7 % - 7 d w s 8 ; (.lXhXS.y.' ^ ..K._._.;.&.aXlXlXlXlXlXlXlXlXlXzXzXlXzX",
"lXlXlXzXlXlXlXlXlXlXlXlXlXgXG.| v.D H %.;.-.N.m.N.E.&.%.! w % : 7 8 6 % Q sXkXrX;X>X;Xp. .*.K._ 0 R ).hXlXlXlXlXlXlXlXlXlXlXzXlX",
"zXlXlXlXlXzXlXzXlXlXlXlXgX_.v.o.| J G G  .n.n.n.E.O.^ X.i.p.u = $ - % # d A.>X;X>X2X2X@X)  .D @ t F | K.zXlXlXlXzXlXlXlXzXlXzXzX",
"lXhXlXlXzXlXzXlXlXlXlXlX~.| o.=.v.=.o.F 6 A *.m.O.E H y.%X1Xk.N $ @ @ 8 r 9.}.l.+X>X2X@XU h - : z R X.@.9XlXlXlXlXlXzXzXlXzXzXlX",
"lXlXlXhXzXzXzXlXzXlXlXgXn.| @.@.@.-.;.&.9 O 6 H H f H @X1X1X1X%X[ q 9 y 9.}..Xl.z..X>X9.q $ ; q t x ^ @.L.lXlXlXhXlXlXlXlXzXkXlX",
"lXlXlXlXlXzXlXzXzXlXzX3Xv. .@.#./  .@.&.9 O 0 0 9 9 Y $X1X,X,X1X*Xb 6 p 9.z.z.x.z.x.oX2 X - q - 8 z R X.b.sXlXlXlXlXlXzXlXlXlXzX",
"hXlXhXlXlXlXhXlXlXlXqXC._ D ^ ^ Q ^ Q I 8 O 0 d s s l k.#X=X=XOX=X] 8 6 2 n q.s.c.}.] . @ > - - ; 8 z L :.aXlXhXlXlXlXlXlXlXlXlX",
"lXlXlXlXlXlXlXlXlXlXsXG.S t S H I I I w s 6 0 g d d h ] OX-XOXOX=Xk.r @ O . & p v [ 2 . X = : 8 ; - 0 y g.lXlXlXhXlXlXlXhXlXlXlX",
"lXhXlXlXlXlXlXlXlXlXlX8XS - 6 w f s h f 6 6 5 9 9 9 d b k.&XOXx.OX$X` @ @ # @ + @ @ @ X $ - ; - $ = : j 3XlXlXzXlXlXlXlXlXlXhXlX",
"lXlXlXlXlXlXhXlXlXlXlXzXX.# - - 7 6 8 t % % 6 6 - - 9 q 9. Xz.h.` n p # $ @ $ $ X X + @ = = = = - = 8 C.lXlXlXlXlXlXlXhXhXlXlXlX",
"lXlXlXhXlXlXlXlXlXlXlXlXC.- - - : : 6 > - % - 6 - - - - 2 p b p , $ $ $ $ $ $ @ . @ @ $ = - - - - = #.aXlXlXlXlXhXlXlXlXlXlXlXhX",
"lXlXlXlXhXlXlXlXlXlXlXlX:Xt - - : : : : - : - : : - % - - % - > - - $ @ $ $ @ . @ @ $ = - = - = = ( qXlXlXzXlXlXlXlXlXlXlXlXlXlX",
"hXlXlXlXhXlXhXlXlXlXlXlXsXJ - 6 : : - ; - : : : : = - - - - ; - - - = = @ X . @ $ = = - = = $ 8 <.sXlXlXlXlXlXhXlXlXlXhXlXlXlXlX",
"lXlXlXlXlXlXlXlXlXlXlXlXzXC.; - : - - - : > - - ; ; - - = - - - = $ @ $ S H . @ $ = = $ = = b ^.hXlXlXlXkXlXlXlXlXlXlXlXlXhXlXlX",
"lXlXlXlXlXlXlXlXlXlXlXlXlXsX~ = - - = - : : : - : : - : > : ; : - e P Z.R.k X @ @ @ X @ - -.pXlXlXlXlXlXlXkXzXlXlXlXlXlXlXlXlXlX",
"lXhXlXlXlXlXhXlXhXlXlXlXlXlX5XS = = = = = : O.R.<.( :.Z.(.)./.(./.4X4XA.e   . X X @ $ ; i.zXlXlXlXzXlXlXlXlXlXhXlXlXlXlXlXhXlXlX",
"lXlXlXhXhXlXlXlXlXlXlXlXlXlXlX'.8 @ X   o @ E uXlXlXlXlXlXlXlXlXlXzX/   X @ $ $ = @ 8 G.lXlXlXlXzXlXzXzXlXlXlXlXlXlXlXhXlXlXhXlX",
"hXlXlXlXlXlXlXhXlXlXlXhXlXlXlXlX:.= = = - = X ,.lXlXlXlXlXlXlXlXlX{.- @ X X @ @ X o Z.lXlXlXlXjXlXlXzXlXlXhXlXlXhXlXlXlXhXlXlXlX",
"lXlXlXlXlXlXlXlXlXlXlXlXlXlXlXlXpX~ X X @ : @ &.lXlXlXlXlXlXlXlXlX:.= > 8 > @   @ :.fXlXlXlXlXlXzXlXlXlXzXlXlXlXlXhXlXlXlXlXlXlX",
"lXlXlXhXhXlXlXlXlXlXlXlXlXlXlXlXhXC.8 . = 1 : <.lXlXlXlXlXlXlXlX/.:.i y f k e > ,.hXlXlXlXlXlXlXzXlXzXlXlXlXhXlXlXlXlXlXlXlXlXhX",
"lXlXlXlXlXlXlXlXlXlXlXlXlXlXlXlX3Xy   X u x Y Z.lXlXlXlXlXlXlXuXQ ) ' u > e j T L.sXlXlXlXlXlXlXlXlXlXlXzXzXlXlXlXlXlXhXlXlXlXlX",
"lXhXlXlXlXlXhXlXlXlXlXlXlXlXlXlX!.: @ j ( N N ' sXlXlXlXzXlXlX6Xk y u 8 a U a A.'.pXlXlXlXlXlXlXlXzXlXzXlXlXlXzXlXlXlXlXlXhXlXlX",
"lXlXlXlXlXlXlXzXlXlXlXlXlXlXlX3Xc - d ~ Y l N T qXlXlXlXlXlXlXQ.> > > 1 u N a T {.kXlXlXkXkXlXlXlXlXlXlXlXlXlXhXhXlXlXlXlXhXlXlX",
"hXlXlXhXlXlXhXlXlXlXlXlXlXpXR.| c g L L l N N T rXlXlXlXlXlXlXZ.1 > 1 1 1 i i Y { /.kXlXlXlXlXlXlXhXlXlXhXlXlXlXlXlXhXlXlXlXlXlX",
"lXlXlXlXlXlXlXlXlXlXlXlX3X .E I S N Y a l N T i.gXlXlXlXlXlXlXL.1 < o < , 1 e N ) { g.{.pXlXlXlXlXlXhXlXlXlXlXlXlXlXlXlXlXlXlXlX",
"lXlXlXlXlXhXzXlXlXlXlXlXZ.S ) U l l a N g.S.T.0XlXlXlXlXlXlXlXhX[.Z.:.T u , , e u u l $.D.iXlXlXhXlXlXlXlXlXlXlXlXhXlXlXlXlXlXhX",
"lXlXlXlXlXzXlXlXlXkXlXlX{.Y ' #.' ' i.7XlXlXlXlXlXlXlXlXlXlXlXlXlXlXlXhX7XZ.#.U x l T 1.D.yXlXlXlXlXlXhXlXlXlXlXlXlXlXlXhXlXlXlX",
"lXhXlXlXlXlXlXzXlXlXlXlXzXsXsXdXaXhXzXlXlXlXlXlXlXlXlXlXlXlXlXlXlXlXlXkXlXlXlXdXqX0X0X0XsXlXlXlXlXlXlXlXlXhXlXhXhXlXlXhXlXlXhXlX",
"lXlXlXhXlXzXlXzXlXlXzXlXzXzXkXkXlXlXlXlXlXlXlXzXlXlXlXlXlXlXlXlXlXlXlXlXlXhXlXlXlXlXlXlXkXlXhXlXlXlXlXlXlXlXlXhXlXlXlXlXlXhXlXlX",
"hXlXlXlXlXzXlXlXlXlXzXkXzXkXzXzXlXlXlXlXlXlXzXlXlXlXlXlXlXlXlXlXlXlXlXlXlXlXlXlXlXlXlXkXlXkXlXlXlXhXlXlXlXlXlXlXlXlXlXlXlXlXlXlX"
};
