/* XPM */
static char *e91f738689f940d3fc207367c9700de0Ozam196PmXtMiuiq[] = {
/* columns rows colors chars-per-pixel */
"64 64 228 2 ",
"   c #040403",
".  c #0A0604",
"X  c #0C0905",
"o  c #0D0D0B",
"O  c #050809",
"+  c #120E0C",
"@  c #170A08",
"#  c #13110E",
"$  c #1A120D",
"%  c #151312",
"&  c #1A1514",
"*  c #1C1816",
"=  c #1C1B1A",
"-  c #171718",
";  c #0F100F",
":  c #270C0E",
">  c #22130E",
",  c #231413",
"<  c #2B1415",
"1  c #231A15",
"2  c #2A1C16",
"3  c #221C1B",
"4  c #2B1C1B",
"5  c #201718",
"6  c #341B1B",
"7  c #381718",
"8  c #25211E",
"9  c #2A221D",
"0  c #33251C",
"q  c #332317",
"w  c #1E1E21",
"e  c #2B1F21",
"r  c #211F22",
"t  c #361F21",
"y  c #1E2124",
"u  c #242324",
"i  c #2B2525",
"p  c #2D2826",
"a  c #25272A",
"s  c #292629",
"d  c #26292C",
"f  c #2C2A2C",
"g  c #322C2C",
"h  c #332824",
"j  c #34312D",
"k  c #3C312C",
"l  c #2C2D32",
"z  c #272B31",
"x  c #332F32",
"c  c #2D323A",
"v  c #343334",
"b  c #3A3334",
"n  c #34353B",
"m  c #3C3A3C",
"M  c #3A3739",
"N  c #4B1516",
"B  c #681516",
"V  c #6C3F1B",
"C  c #47372C",
"Z  c #593E2D",
"A  c #433C3C",
"S  c #473A37",
"D  c #523C38",
"F  c #7D2A2A",
"G  c #5D4129",
"H  c #4C423A",
"J  c #55483A",
"K  c #654326",
"L  c #764D2A",
"P  c #614733",
"I  c #735136",
"U  c #754D32",
"Y  c #363B43",
"T  c #3C3D42",
"R  c #383A44",
"E  c #2F3744",
"W  c #413D43",
"Q  c #573742",
"!  c #3B424D",
"~  c #3F4452",
"^  c #444145",
"/  c #44454C",
"(  c #49444A",
")  c #4B4A4C",
"_  c #494646",
"`  c #544B46",
"'  c #59524C",
"]  c #4C4C54",
"[  c #464852",
"{  c #574D51",
"}  c #4E5157",
"|  c #525152",
" . c #5A5354",
".. c #5C5B5C",
"X. c #55555B",
"o. c #645449",
"O. c #67574A",
"+. c #755744",
"@. c #645C58",
"#. c #734F4D",
"$. c #6B665E",
"%. c #76655A",
"&. c #4D5767",
"*. c #5C5A61",
"=. c #555964",
"-. c #645D63",
";. c #5C677A",
":. c #5E6066",
">. c #646365",
",. c #6D6A6B",
"<. c #666469",
"1. c #756A63",
"2. c #7D726D",
"3. c #656977",
"4. c #756E75",
"5. c #797577",
"6. c #67707F",
"7. c #AD2527",
"8. c #9B3033",
"9. c #935B31",
"0. c #885833",
"q. c #98633C",
"w. c #A56A3A",
"e. c #B06F3B",
"r. c #C2743C",
"t. c #9B3E48",
"y. c #8A6449",
"u. c #946746",
"i. c #83695A",
"p. c #986D52",
"a. c #9D735B",
"s. c #9F704F",
"d. c #A46D49",
"f. c #A87856",
"g. c #B27D57",
"h. c #B2764F",
"j. c #BC4D60",
"k. c #877668",
"l. c #867D77",
"z. c #997C69",
"x. c #A67E65",
"c. c #B37E62",
"v. c #C17F50",
"b. c #C57D4A",
"n. c #F55F6D",
"m. c #948376",
"M. c #958475",
"N. c #A7846A",
"B. c #B98568",
"V. c #A38B78",
"C. c #B78B78",
"Z. c #BE927D",
"A. c #AE947F",
"S. c #C58456",
"D. c #D78E57",
"F. c #E5935D",
"G. c #C58965",
"H. c #DB9569",
"J. c #C68D74",
"K. c #C79579",
"L. c #D89C77",
"P. c #C2926F",
"I. c #E49C75",
"U. c #E5A37B",
"Y. c #797B86",
"T. c #6E788A",
"R. c #5D6E87",
"E. c #7D889A",
"W. c #918C8D",
"Q. c #988C87",
"!. c #959494",
"~. c #9C9A9B",
"^. c #999796",
"/. c #918B8C",
"(. c #A89485",
"). c #B99C88",
"_. c #A39B98",
"`. c #B19F92",
"'. c #AA8C97",
"]. c #B8A699",
"[. c #BFA08E",
"{. c #9798A7",
"}. c #9D9FB0",
"|. c #A59DA5",
" X c #A9A8A8",
".X c #B6ACA7",
"XX c #B5B3B2",
"oX c #BCB9B8",
"OX c #B8AFAF",
"+X c #C69583",
"@X c #D4A88B",
"#X c #DFAC93",
"$X c #C8A995",
"%X c #E7AC87",
"&X c #ECB194",
"*X c #C5B4AA",
"=X c #C5BDB8",
"-X c #D0B1A9",
";X c #E9B8A4",
":X c #C9C1BD",
">X c #D6C2B8",
",X c #EFC6AE",
"<X c #C1BEC1",
"1X c #BFC9DA",
"2X c #C5C3C3",
"3X c #CBC7C7",
"4X c #D6CCC7",
"5X c #D9D1CC",
"6X c #D3D2D3",
"7X c #DCD8D9",
"8X c #E7D5CA",
"9X c #E3DEDB",
"0X c #E6DBD5",
"qX c #F6CFC8",
"wX c #EAE1DC",
"eX c #F7E4D8",
"rX c #E4E2E2",
"tX c #ECEBEB",
"yX c #EEE6E2",
"uX c #F3EEEC",
"iX c #F7ECE6",
"pX c #F5F1EE",
"aX c #FBF1EB",
"sX c #F4F4F4",
"dX c #FAF6F5",
"fX c #FFFFFF",
"gX c #FCF8F7",
"hX c #F1EFF0",
/* pixels */
"fXfXfXfXfXfXfXfXfXfXfXfXfXfXfXfXfXfXfXfXfXfXfXfXfXfXfXfXfXwX<XuXfXfXfXfXfXfXfXfXfXfXfXfXfXfXfXfXfXfXfXfXfXfXfXfXfXfXfXfXfXfXfXfX",
"fXfXfXfXfXfXfXfXfXfXfXfXfXfXfXfXfXfXfXfXfXfXfXfXfXfXfXfX6XO.* J (.7XfXfXfXfXfXfXfXfXfXfXfXfXfXfXfXfXfXfXfXfXfXfXfXfXfXfXfXfXfXfX",
"fXfXfXfXfXfXfXfXfXfXfXfXfXfXfXfXfXfXfXfXfXfXfXfXfXfXfXfXQ.+ ; Z g.m.hXgXfXfXfXfXfXfXfXfXfXfXfXfXfXfXfXfXfXfXfXfXfXfXfXfXfXfXfXfX",
"fXfXfXfXfXfXfXfXfXfXfXfXfXfXfXfXfXfXfXfXfXfXfXfXfXfXfXfX_ Z P C p.N.1XgXfXfXfXfXfXfXfXfXfXfXfXfXfXfXfXfXfXfXfXfXfXfXfXfXfXfXfXfX",
"fXfXfXfXfXfXfXfXfXfXfXfXfXfXfXfXfXfXfXfXfXfXfXfXfXfXfXtX0 u.H.f.U [.tXgXfXfXfXfXfXfXfXfXfXfXfXfXfXfXfXfXfXfXfXfXfXfXfXfXfXfXfXfX",
"fXfXfXfXfXfXfXfXfXfXfXfXfXfXfXfXfXfXfXfXfXfXfXfXfXfXfXOX` I v.U.J.$XfXfXfXfXfXfXfXfXfXfXfXfXfXfXfXfXfXfXfXfXfXfXfXfXfXfXfXfXfXfX",
"fXfXfXfXfXfXfXfXfXfXfXfXfXfXfXfXfXfXfXfXfXfXfXfXfXfXsXuX.X0.S.B.J.*XfXfXfXfXfXfXfXfXfXfXfXfXfXfXfXfXfXfXfXfXfXfXfXfXfXfXfXfXfXfX",
"fXfXfXfXfXfXfXfXfXfXfXfXfXfXfXfXfXfXfXfXfXfXfXfXfXgXfXfXfXL.H.q.N.yXfXfXfXfXfXfXfXfXfXfXfXfXfXfXfXfXfXfXfXfXfXfXfXfXfXfXfXfXfXfX",
"fXfXfXfXfXfXfXfXfXfXfXfXfXfXfXfXfXfXfXfXfXfXfXfXfXfXfXfX8XF.I.9.].fXfXfXfXfXfXfXfXfXfXfXfXfXfXfXfXfXfXfXfXfXfXfXfXfXfXfXfXfXfXfX",
"fXfXfXfXfXfXfXfXfXfXfXfXfXfXfXfXfXfXfXfXfXfXfXfXgXeX,XI.D.e.H.e.L $XaXfXfXfXfXfXfXfXfXfXfXfXfXfXfXfXfXfXfXfXfXfXfXfXfXfXfXfXfXfX",
"fXfXfXfXfXfXfXfXfXfXfXfXfXfXfXfXfXfXfXfXfXfXfXgX#Xh.w.r.F.r.b.d.q.h.s.#X8XfXgXfXfXfXfXfXfXfXfXfXfXfXfXfXfXfXfXfXfXfXfXfXfXfXfXfX",
"fXfXfXfXfXfXfXfXfXfXfXfXfXfXfXfXfXfXfXfXfXfXfX;X%XB.e.I.I.D.v.9.9.S.u.S.p.tXfXfXfXfXfXfXfXfXfXfXfXfXfXfXfXfXfXfXfXfXfXfXfXfXfXfX",
"fXfXfXfXfXfXfXfXfXfXfXfXfXfXfXfXfXfXfXfXfXfXeXL.K.y.0.L.#XJ.a.c.J.f.I Z.i.:XfXfXfXfXfXfXfXfXfXfXfXfXfXfXfXfXfXfXfXfXfXfXfXfXfXfX",
"fXfXfXfXfXfXfXfXfXfXfXfXfXfXfXfXfXfXfXfXfXgXP.J.B.*XK w.I.J.c.+XK.I 0 I +.].fXfXfXfXfXfXfXfXfXfXfXfXfXfXfXfXfXfXfXfXfXfXfXfXfXfX",
"fXfXfXfXfXfXfXfXfXfXfXfXfXfXfXfXfXfXfXfXfX;X@XN.5X9XV u.I.G.;XB.u.P C +.s.>XfXgXfXfXfXfXfXfXfXfXfXfXfXfXfXfXfXfXfXfXfXfXfXfXfXfX",
"fXfXfXfXfXfXfXfXfXfXfXfXfXfXfXfXfXfXfXgXeXH.B.).fX0XK d.%X&XqX+Xp.G %.I u.].fXfXfXfXfXfXfXfXfXfXfXfXfXfXfXfXfXfXfXfXfXfXfXfXfXfX",
"fXfXfXfXfXfXfXfXfXfXfXfXfXfXfXfXfXfXfXaXU.K.A.fXfXgXI h.L.#X-XC.x.P oXy.f.(.fXfXfXfXfXfXfXfXfXfXfXfXfXfXfXfXfXfXfXfXfXfXfXfXfXfX",
"fXfXfXfXfXfXfXfXfXfXfXfXfXfXfXfXfXfXfX,XD.f.dXfXgXfXm.L %XqXqXN.K 1.fXi.I ).fXfXfXfXfXfXfXfXfXfXfXfXfXfXfXfXfXfXfXfXfXfXfXfXfXfX",
"fXfXfXfXfXfXfXfXfXfXfXfXfXfXfXfXfXfXgX&XS.A.fXfXfXfX8X8X4X XoX7X:XwXfX`.0.C.aXfXfXfXfXfXfXfXfXfXfXfXfXfXfXfXfXfXfXfXfXfXfXfXfXfX",
"fXfXfXfXfXfXfXfXfXfXfXfXfXfXfXfXfXfXdX&XS.7XfXgXfXpXXX| # . o u *.2XfX(.9.u.0XfXfXfXfXfXfXfXfXfXfXfXfXfXfXfXfXfXfXfXfXfXfXfXfXfX",
"fXfXfXfXfXfXfXfXfXfXfXfXfXfXfXfXfXfXpXL.$XfXgXgXfX=X. X & * i #   * fXk.L B.uXfXfXfXfXfXfXfXfXfXfXfXfXfXfXfXfXfXfXfXfXfXfXfXfXfX",
"fXfXfXfXfXfXfXfXfXfXfXfXfXfXfXfXfXfX8XL.#XiXfXfXfX$.X 3 & % # % *   6X X9.;XfXfXfXfXfXfXfXfXfXfXfXfXfXfXfXfXfXfXfXfXfXfXfXfXfXfX",
"fXfXfXfXfXfXfXfXfXfXfXfXfXfXfXfXfXfXeX%XN.$XfXfXXX$ * * * % & # % O m M.B.>XfXfXfXfXfXfXfXfXfXfXfXfXfXfXfXfXfXfXfXfXfXfXfXfXfXfX",
"fXfXfXfXfXfXfXfXfXfXfXfXfXfXfXfXfXfX>XS.].*XfXfXJ $ * * w 8 f f 8 u G S.f.0XfXfXfXfXfXfXfXfXfXfXfXfXfXfXfXfXfXfXfXfXfXfXfXfXfXfX",
"fXfXfXfXfXfXfXfXfXfXfXfXfXfXfXfXgXfX0XC.C.4XfX9Xk & & # - s u = % k J B.g.uXfXfXfXfXfXfXfXfXfXfXfXfXfXfXfXfXfXfXfXfXfXfXfXfXfXfX",
"fXfXfXfXfXfXfXfXfXfXfXfXfXfXfXfXfXfXfX9XyXfXfX5X0 & & % % % % % = *   u.Z.sXfXfXfXfXfXfXfXfXfXfXfXfXfXfXfXfXfXfXfXfXfXfXfXfXfXfX",
"fXfXfXfXfXfXfXfXfXfXfXfXfXfXfXfXfXfXfXfXfXfXfX`.$ 1 & % o ; % % & 1 & H C.iXfXfXfXfXfXfXfXfXfXfXfXfXfXfXfXfXfXfXfXfXfXfXfXfXfXfX",
"fXfXfXfXfXfXfXfXfXfXfXfXfXfXfXfXfXfXfXfXfXfXfXk.1 3 * O <.rX$.& 9 1 9 o #.5XfXfXfXfXfXfXfXfXfXfXfXfXfXfXfXfXfXfXfXfXfXfXfXfXfXfX",
"fXfXfXfXfXfXfXfXfXfXfXfXfXfXfXfXfXfXfXfXfXfXaXO.& 3 % a sXfXfX$.$ 9 3 3 # 3XfXfXfXfXfXfXfXfXfXfXfXfXfXfXfXfXfXfXfXfXfXfXfXfXfXfX",
"fXfXfXfXfXfXfXfXfXfXfXfXfXfXfXfXfXfXfXfXfXfXwX` 1 9   5.fXsXfXtXj & * p %  XfXgXfXfXfXfXfXfXfXfXfXfXfXfXfXfXfXfXfXfXfXfXfXfXfXfX",
"fXfXfXfXfXfXfXfXfXfXfXfXfXfXfXfXfXfXfXfXgXfX5XC 1 = ; 3XfXfXgXfX5.X * = % | fXfXfXfXfXfXfXfXfXfXfXfXfXfXfXfXfXfXfXfXfXfXfXfXfXfX",
"fXfXfXfXfXfXfXfXfXfXfXfXfXfXfXfXfXfXfXfXfXfXQ.2 4 % M fXfXfXfXfX:X& & * 8 # 6XfXfXfXfXfXfXfXfXfXfXfXfXfXfXfXfXfXfXfXfXfXfXfXfXfX",
"fXfXfXfXfXfXfXfXfXfXfXfXfXfXfXfXfXfXfXgXfXwXo., m = 4.fXfXfXfXfXfXH $ & p + ^.fXgXfXfXfXfXfXfXfXfXfXfXfXfXfXfXfXfXfXfXfXfXfXfXfX",
"fXfXfXfXfXfXfXfXfXfXfXfXfXfXfXfXfXfXfXfXfXwXo.3 { = XXfXgXfXfXgXfX5.# * M =  .fXfXfXfXfXfXfXfXfXfXfXfXfXfXfXfXfXfXfXfXfXfXfXfXfX",
"fXfXfXfXfXfXfXfXfXfXfXfXfXfXfXfXfXfXfXfXfX:X0 r T ) fXfXfXfXfXfXfX7X1 # u 8 A fXfXfXfXfXfXfXfXfXfXfXfXfXfXfXfXfXfXfXfXfXfXfXfXfX",
"fXfXfXfXfXfXfXfXfXfXfXfXfXfXfXfXfXfXfXfXfXm.& p - ~.fXgXfXfXfXfXfXsXj # = u a tXfXfXfXfXfXfXfXfXfXfXfXfXfXfXfXfXfXfXfXfXfXfXfXfX",
"fXfXfXfXfXfXfXfXfXfXfXfXfXfXfXfXfXfXfXfXuXO.& s % 6XfXfXfXfXfXfXfXfX5.$ * = * 3XfXfXfXfXfXfXfXfXfXfXfXfXfXfXfXfXfXfXfXfXfXfXfXfX",
"fXfXfXfXfXfXfXfXfXfXfXfXfXfXfXfXfXfXfXfX0XJ * = v fXfXfXfXfXfXfXgXfXrX9 3 8 & 5.fXgXfXfXfXfXfXfXfXfXfXfXfXfXfXfXfXfXfXfXfXfXfXfX",
"fXfXfXfXfXfXfXfXfXfXfXfXfXfXfXfXfXfXfXfX8XC r % @.fXfXfXgXfXfXfXfXfXfX| * 8 8 v fXfXfXfXfXfXfXfXfXfXfXfXfXfXfXfXfXfXfXfXfXfXfXfX",
"fXfXfXfXfXfXfXfXfXfXfXfXfXfXfXfXfXfXgXfX.X, i o ~.fX6X6XfXfXfXfXfXgXfXm.X 8 f g sXfXfXfXfXfXfXfXfXfXfXfXfXfXfXfXfXfXfXfXfXfXfXfX",
"fXfXfXfXfXfXfXfXfXfXfXfXfXfXfXfXfXfXfXfXl.# p + 2XaX' W.pXrXtXsXgXfXfX X# & p w 2XfXfXfXfXfXfXfXfXfXfXfXfXfXfXfXfXfXfXfXfXfXfXfX",
"fXfXfXfXfXfXfXfXfXfXfXfXfXfXfXfXfXfXsX5XH X * g 5Xk.M  .8 9 i b ^ | 4.@.1 3 p   ,.fXgXfXfXfXfXfXfXfXfXfXfXfXfXfXfXfXfXfXfXfXfXfX",
"fXfXfXfXfXfXfXfXfXfXfXfXfXgXfXfXdX6X7X.Xo._ * j ..H 1 & % # # # # o X X & 3 p _ 1XfXgXfXfXgXgXfXfXfXfXfXfXfXfXfXfXfXfXfXfXfXfXfX",
"fXfXfXfXfXfXfXfXfXfXgXfX_.C O.1.o.k.Q.1.2.l.i # ` O.# & % & * & % % - & & % h Q.Q.oXfXfXfXfXfXfXfXgXfXfXfXfXfXfXfXfXfXfXfXfXfXfX",
"fXfXfXfXfXfXfXfXfXfX9X*Xo.> 1 @ 2 9 > > , * * - # ; % & 1 * & $ & $ & & & 1 $ 9 2 o.4.4.5./.|.3XsXfXfXfXfXfXfXfXfXfXfXfXfXfXfXfX",
"fXfXfXfXfXfXfXfXfXfX*XV.0 > q 6 4 < > 7 N 3 * # % % # & * = & & & & & & & $ 1 2 2 $ @ @ . . . # i X.=XfXfXfXfXfXfXfXfXfXfXfXfXfX",
"fXfXfXfXfXfXfXfXfXdX[.M.9 2 2 6 < < < , < $ u * % % % & & $ & 9 * $ # & * # 9 q 2 3 3 i 4 3 * & + O - 2XfXfXfXfXfXfXfXfXfXfXfXfX",
"fXfXfXfXfXfXfXfXfX9X(.J > 6 N 7 7 < < 6 t 3 d # % # % 1 1 3 3 3 8 = = * & & 1 q 1 p e 4 < * e & * & - s _ tXfXfXfXfXfXfXfXfXfXfX",
"fXfXfXfXfXfXfXfXfX7XV.o.: 7 7.7.B B N : 7 % % * % ; & 3 5 3 s x x m ) X.{ = 2 9 % 5 < @ @ , , , < , - -    XfXdXfXfXfXfXfXfXfXfX",
"fXfXfXfXfXfXfXfXfXgX*Xk.7 : 8.n.t.F U o.#.S e * * % % % * = u = = 3 m m _ p $ , - # W { S 4 , , < , + % % XXfXfXfXfXfXfXfXfXfXfX",
"fXfXfXfXfXgXfXfXfXfXfX4X%.N B j.'.rXgXfX_.o.h * & & = = u m ) Y ] ( ..*.*.( s r % O -.<XOXQ : , , , e e @ XXfXfXfXfXfXfXgXdXfXfX",
"fXfXfXfXfXfXsXrX7X~.OX XQ.D t y.tXfXfXOX5 & * * # % % % % ; % * = = = 3 u u u e # % 5 5 # k h , , , 4 e p hXfXfXdXtXtXfXfXfXfXfX",
"fXgXfXfX7X XH p W & & + g 4 f |.fXfXQ.# g 8 = * & % % % # % % + o o o o o o & % % 3 t g g x J * % & * & g !.2.@.2.S b A /.=XdXfX",
"fXfXrX@.g g @ T.;.# i c # 5 5 3 1.l.$ { h 9 h % p 3 = = u d s c x d a a w & 3 = O e b @ e A x & & & & = 3 + 3 p 1 3./ & v * W.tX",
"fX4XM X i T i T.6.=./ *.l l W % * . Q D & * 8 ! ! u = u Y n m v v d d d s - = l r x r r 5 & _ M * % % % * + Y.{.r R * w R * f x ",
"1.8 p 9 f n d u % = * Y W = d * - 3 4 & A p = n Y = % * = = % % ; # # & ; & # z l w r W ( * $ g r # * 3 v * A ] l e r = & - = = ",
"0 j u y l - ; w u w w ;   = X.= l 5 3 w g ' 8 y R ; ; ; o o ; % w 8 ; # # * * ; # * p - - % u - = = % = | | ) | M .._ m ) ! 8 = ",
"H J = u % = z y u - z :.( O - = u - $ l.m.` - % r 5 w s l g g s u a = * - * * # . m ,.o & u v % 3 1 k ' XX X!.~..X{.{.!.!. X .# ",
"8 p u ; y d = ; % ; - ; ..>.X = | = % ' 1.S & - r u - W *.W W R m A a f p = y # u d f - # / T X % 8 ,.~.oX X X X2XoX X~.^.6X>.  ",
"% Y - w d u = y n ! ! E O ..) O g f f & = - * = s r n ] W =.Q W m / ! i f f - = Y z ; = % % = - % # ; E.~.W.~. XXX^.!.~.~.:X| O ",
"y d % y y u a y = - 3.E.E O -.= # - 3 t - % - = n ] 3.3.=.T.4.T.4.Y.6.) } } / / } O ; % % ; = 8 i p ) c j ..) | j v >.| | ) # = ",
"v w w y ; Y u O % O *.}.R.% n l # n & 1 u u u n W ~ ;.3.&.;.Y.}.3.&.&.6.T.[ b ! ) ) f % % i * 1 = 8 n = u d a v T = f a d l - % ",
"! = # * ; ; o z T.T.d z =.a = d o 3 =.b 2XrX7XtX!.*.X./ <.!.|.|.Y.>.! ! X.{.wXtXgXfX,.% - m _ % - ; % % ; w m o v _ w o ; - = % ",
"d % ; ; - = O E 6XE.; w E E = y + & M 4 7XfXfXfXfXdXfXdXgXgXuXuXsXuX9X6XtXfXfXfXfXfX X= % = H p % - = = % w f - % n X.; % = - % "
};
