/* XPM */
static char *d3750af06e814d03c1cfd3c67af3a1e9gEd9zOz7WeCmkrsV[] = {
/* columns rows colors chars-per-pixel */
"64 64 223 2 ",
"   c #DA5F01",
".  c #DA5F00",
"X  c #DA5E00",
"o  c #DA5D00",
"O  c #D95C00",
"+  c #D95D00",
"@  c #D95E00",
"#  c #DA6004",
"$  c #DA670E",
"%  c #DC711E",
"&  c #DB6C18",
"*  c #DA5F02",
"=  c #DA5E01",
"-  c #DC6B16",
";  c #DF7C30",
":  c #DE7A2F",
">  c #DE7A2D",
",  c #DF792B",
"<  c #DF7B30",
"1  c #DF7C31",
"2  c #DE7D32",
"3  c #DF8138",
"4  c #DA640B",
"5  c #DD701E",
"6  c #E7A16A",
"7  c #E8A978",
"8  c #E39559",
"9  c #ECB990",
"0  c #EFC6A5",
"q  c #F4D9C2",
"w  c #F8E9DC",
"e  c #F4DBC6",
"r  c #DD7729",
"t  c #DA6207",
"y  c #EEC09B",
"u  c #FCF5EF",
"i  c #FBF3EC",
"p  c #FBF2EA",
"a  c #F9EEE3",
"s  c #FBF1E8",
"d  c #FCF4ED",
"f  c #FCF6F1",
"g  c #E4985D",
"h  c white",
"j  c #FDF9F5",
"k  c #FEFFFE",
"l  c #F8EDE2",
"z  c #DE7A2E",
"x  c #E9AD7E",
"c  c #FDFEFC",
"v  c #FEFDFB",
"b  c #E9B68D",
"n  c #F7E3D3",
"m  c #FCF8F3",
"M  c #E59B62",
"N  c #E7A470",
"B  c #FBF7F2",
"V  c #FEFFFF",
"C  c #EDC4A1",
"Z  c #DA6105",
"A  c #DA660E",
"S  c #EDC19E",
"D  c #F3D8C1",
"F  c #F9EBDF",
"G  c #F8E5D6",
"H  c #E28C4B",
"J  c #DA640A",
"K  c #DA6208",
"L  c #E18A46",
"P  c #F2D3B9",
"I  c #FEFEFE",
"U  c #F6E5D4",
"Y  c #D95B00",
"T  c #E28C4A",
"R  c #FDFBF7",
"E  c #EFC2A0",
"W  c #DC7221",
"Q  c #F6E2D0",
"!  c #E6A16B",
"~  c #DD7424",
"^  c #F8EADE",
"/  c #EEC3A0",
"(  c #D96004",
")  c #EFCAAB",
"_  c #FBF4ED",
"`  c #DF8139",
"'  c #EDBC94",
"]  c #E49D64",
"[  c #D96206",
"{  c #EFCDAF",
"}  c #F4DAC4",
"|  c #DB670F",
" . c #DD782B",
".. c #EEC5A3",
"X. c #DB6B15",
"o. c #F3D9C3",
"O. c #ECBA92",
"+. c #D95E01",
"@. c #DC7321",
"#. c #F8EBDD",
"$. c #E69E65",
"%. c #FAF3EB",
"&. c #FEFFFD",
"*. c #E59B60",
"=. c #F8EADD",
"-. c #EDBF9A",
";. c #D95F02",
":. c #FBF7F1",
">. c #E0853D",
",. c #DA6309",
"<. c #F1D0B4",
"1. c #DA670F",
"2. c #EEBF9A",
"3. c #F4DCC7",
"4. c #DB6B16",
"5. c #E8AB7A",
"6. c #FAEDE3",
"7. c #DD7526",
"8. c #DA660D",
"9. c #F3D7C0",
"0. c #EEC09C",
"q. c #D95E02",
"w. c #E28B49",
"e. c #FDFAF6",
"r. c #FDF8F4",
"t. c #E08742",
"y. c #DA5C00",
"u. c #DD7423",
"i. c #F9ECE0",
"p. c #E7A571",
"a. c #DC711F",
"s. c #F7E8D9",
"d. c #E69F67",
"f. c #FBF4EC",
"g. c #E18A47",
"h. c #DA6106",
"j. c #EFC8A7",
"k. c #EEC4A2",
"l. c #E39152",
"z. c #FCFBF8",
"x. c #DD7628",
"c. c #DF7F35",
"v. c #F6E4D3",
"b. c #F7E6D7",
"n. c #DC701C",
"m. c #E9A876",
"M. c #F3DBC4",
"N. c #EDC09C",
"B. c #FBF7F0",
"V. c #E0853E",
"C. c #DB650D",
"Z. c #F1D2B7",
"A. c #EDBD97",
"S. c #D95F01",
"D. c #D96003",
"F. c #EFC5A3",
"G. c #FCF7F1",
"H. c #E18640",
"J. c #DB6810",
"K. c #F3DBC5",
"L. c #E69E66",
"P. c #EDC09B",
"I. c #F7EADD",
"U. c #DE7C32",
"Y. c #EEC29F",
"T. c #FBF6EF",
"R. c #E07E34",
"E. c #E7A26C",
"W. c #FCF7F2",
"Q. c #FDFCF9",
"!. c #F3D8C2",
"~. c #DC6D1A",
"^. c #E9AE7F",
"/. c #F6E3D1",
"(. c #E08037",
"). c #FBF5EE",
"_. c #EDC5A3",
"`. c #F6E7D8",
"'. c #DF833B",
"]. c #D95A00",
"[. c #E5995D",
"{. c #EFC6A4",
"}. c #D96005",
"|. c #DB660E",
" X c #FDFDFA",
".X c #F0CEB1",
"XX c #F3DBC7",
"oX c #E5A069",
"OX c #DD7627",
"+X c #E18D4B",
"@X c #F7E7D8",
"#X c #FEFEFD",
"$X c #FEFDFC",
"%X c #ECBD96",
"&X c #DF8137",
"*X c #FAF4EC",
"=X c #F5DDC9",
"-X c #DA6913",
";X c #DF7F34",
":X c #DF7E34",
">X c #DB6913",
",X c #F4DDC8",
"<X c #E6A069",
"1X c #EAB488",
"2X c #E39355",
"3X c #FFFFFE",
"4X c #DC7222",
"5X c #FAEFE5",
"6X c #DE7B2F",
"7X c #D96207",
"8X c #F0CCAD",
"9X c #E28F4F",
"0X c #FBF6F0",
"qX c #E1823B",
"wX c #DA650C",
"eX c #F0CCAE",
"rX c #FAF1E8",
"tX c #F9EDE2",
"yX c #F2D2B7",
"uX c #DD6F1D",
"iX c #DC6D19",
"pX c #DE7728",
"aX c #DB6911",
/* pixels */
"                                                                                                                                ",
"                                                                                                                                ",
"                                                                                                                                ",
"                                                                                                                                ",
"                                                                                                                                ",
"                                                                                                                                ",
"                                                                                                                                ",
"                                                                                                                                ",
"                                                                                                                                ",
"                                                                                                                                ",
"                                                                                                                                ",
"                                                                                                                                ",
"                                                                                                                                ",
"                                                                                                                                ",
"                                                                                . X X                                           ",
"                                        X o o o o o o o o o o X     X O + + @ # $ % & *                                         ",
"                                      = - ; ; : > , < 1 2 3 1 4 X X 5 6 7 8 9 0 q w e r X                                       ",
"                                      t y u i p a s i d d f i g + = 9 h h j h h h k l z o                                       ",
"                                      * x c h v b n h h h h m M + X N B h h h h V C 3 Z                                         ",
"                                      X A S h k D F h h h G H J =   K L P I h h U 2 Y                                           ",
"                                        O T R h h h h h h E + X     . O W Q h k ! O                                             ",
"                                        X ~ ^ h h h h h h / #           ( ) h _ ` o                                             ",
"                                          Z ' V h h h h c ] Y           [ { h } | X                                             ",
"                                          o  .l h h h h V ..X.X       . $ o.h O.+.                                              ",
"                                          X @.#.h h h h h c $.+       o 3 %.&.*.O                                               ",
"                                          X @.=.h h h h h h -.;.      O ! V :.>.o                                               ",
"                                          . ,.<.h h h h h h } 1.X     ;.2.h 3.4.X                                               ",
"                                            + 5.h h h h h h 6.7.o   X 8.9.h 0.q.                                                ",
"                                            O w.e.h h h h h r.t.y.  X u.i.h p.o                                                 ",
"                                            X a.s.h h h h h k d.y.  o 1 f.R g.O                                                 ",
"                                              h.j.h h h h h h k.#   + l.z.a x.o                                                 ",
"                                              X c.v.h h h h h b.n.X O m.V M.| X                                                 ",
"                                                + N.h h h h h B.V.y.C.Z.h A.S.                                                  ",
"                                                D.F.h h h h h G.H.O J.K.V L.O                                                   ",
"                                                S.P.h h h h h I.U.= ;.Y.T.R.o                                                   ",
"                                                + E.k h h W.Q.c !.~.O ^./.& X                                                   ",
"                                                o (.).h h _.`.h B.'.].[.{.}.                                                    ",
"                                                X |.N. Xh .XXXh k oXY OX+XX                                                     ",
"                                                  o W @Xh #X$Xh h %X;.* *                                                       ",
"                                                  o &X*Xh h h h h =X-XX                                                         ",
"                                                  o ;Xf.h h h h h i :Xo                                                         ",
"                                                  X >X,Xh h h h h I <X+                                                         ",
"                                                    +.O.h h h h h h 1X+                                                         ",
"                                                    O 2XQ.h h h h 3X! O                                                         ",
"                                                    X 4Xw h h h h 5X6Xo                                                         ",
"                                                      7X8Xh h h h i :X+                                                         ",
"                                                      + 9X0Xh h h r.qXo                                                         ",
"                                                      X wXeXrX5XtXyXuXX                                                         ",
"                                                          iXpXOXu.aX*                                                           ",
"                                                          X o X X X                                                             ",
"                                                                                                                                ",
"                                                                                                                                ",
"                                                                                                                                ",
"                                                                                                                                ",
"                                                                                                                                ",
"                                                                                                                                ",
"                                                                                                                                ",
"                                                                                                                                ",
"                                                                                                                                ",
"                                                                                                                                ",
"                                                                                                                                ",
"                                                                                                                                ",
"                                                                                                                                ",
"                                                                                                                                "
};
